<svg version="1.2" xmlns="http://www.w3.org/2000/svg" viewBox="0 0 200 185" width="200" height="185">
	<title>LOGO -ai</title>
	<style>
		.s0 { fill: #ffffff } 
		.s1 { fill: #0059a9 } 
		.s2 { fill: #f93a3a } 
		.s3 { fill: #282828 } 
		.s4 { fill: #272727 } 
	</style>
	<g id="_Artboards_">
		<path id="Artboard 1" class="s0" d="m-1334.5-2645l1080-0.2 0.2 1080.1-1080 0.2z"/>
		<path id="Artboard 2" class="s0" d="m-234.5-2645.2l1080-0.2 0.2 1080.1-1080 0.2z"/>
		<path id="Artboard 3" class="s0" d="m865.5-2645.4l1080-0.2 0.2 1080.1-1080 0.2z"/>
		<path id="Artboard 4" class="s0" d="m-1334.3-1544.9l1080-0.2 0.2 1080.1-1080 0.2z"/>
		<path id="Artboard 5" class="s0" d="m-234.3-1545.1l1080-0.2 0.2 1080.1-1080 0.2z"/>
		<path id="Artboard 6" class="s0" d="m865.7-1545.3l1080-0.2 0.2 1080.1-1080 0.2z"/>
		<path id="Artboard 4 copy" class="s0" d="m-1334.1-433.8l1080-0.2 0.2 1080.1-1080 0.2z"/>
	</g>
	<g id="Layer 1">
		<path id="&lt;Path&gt;" class="s0" d="m-1334.5-2645l1080-0.2 0.2 1080.1-1080 0.2z"/>
		<g id="&lt;Group&gt;">
			<g id="&lt;Group&gt;">
				<g id="&lt;Group&gt;">
					<g id="&lt;Group&gt;">
						<path id="&lt;Compound Path&gt;" class="s1" d="m-859.7-2026.5q-3.9 0-5.9-2.1-2.1-2-2.1-5.8v-42.7q0-3.8 2.1-5.8 2-2 5.9-2h28.1q2.9 0 4.4 1.4 1.5 1.5 1.5 4.4 0 2.9-1.5 4.4-1.5 1.5-4.4 1.5h-21.5v11.1h19.6q2.9 0 4.5 1.5 1.5 1.5 1.5 4.4 0 2.9-1.5 4.4-1.6 1.5-4.5 1.5h-19.6v12h21.5q2.9 0 4.4 1.5 1.5 1.5 1.5 4.4 0 2.9-1.5 4.4-1.4 1.4-4.4 1.4z"/>
						<path id="&lt;Compound Path&gt;" class="s1" d="m-810.8-2025.8q-2.9 0-4.8-1.6-1.9-1.6-2.2-4-0.3-2.4 1.7-4.8l17.5-23.2v6.8l-17.1-22.6q-1.9-2.5-1.6-4.9 0.3-2.4 2.2-4 1.9-1.6 4.8-1.6 2.4 0 4.2 1.2 1.9 1.1 3.7 3.7l12.3 17.1h-4.9l12.4-17.1q1.8-2.7 3.6-3.8 1.8-1.1 4.3-1.1 2.9 0 4.8 1.5 1.9 1.6 2.2 4 0.3 2.4-1.7 5l-17.1 22.6v-6.8l17.6 23.1q1.9 2.5 1.7 4.9-0.3 2.4-2.2 4-1.9 1.6-4.9 1.6-2.3 0-4.2-1.1-1.8-1.2-3.7-3.8l-12.7-17.6h4.8l-12.7 17.6q-1.9 2.7-3.7 3.8-1.9 1.1-4.3 1.1z"/>
						<path id="&lt;Compound Path&gt;" fill-rule="evenodd" class="s1" d="m-749.9-2025.8q-3.6 0-5.6-2.1-2-2-2-5.6v-43.8q0-3.7 2-5.7 2-2 5.7-2h20.3q10 0 15.4 5.1 5.4 5.1 5.4 14.1 0 8.9-5.4 14-5.4 5.1-15.3 5.1h-12.9v13.2q0 3.6-1.9 5.6-1.9 2.1-5.7 2.1zm7.6-32.6h10.2q4.3 0 6.6-1.8 2.3-1.9 2.3-5.6 0-3.8-2.3-5.7-2.3-1.8-6.6-1.8h-10.2z"/>
						<path id="&lt;Compound Path&gt;" fill-rule="evenodd" class="s1" d="m-693.1-2025.8q-3.6 0-5.6-2.1-2-2-2-5.6v-43.8q0-3.7 2-5.7 2-2 5.7-2h20.4q9.9 0 15.3 4.9 5.4 4.8 5.4 13.4 0 5.6-2.4 9.7-2.4 4.1-7 6.3-1.5 0.7-3.2 1.2 1.5 0.4 2.8 1.2 2.7 1.7 4.5 5.2l4.2 7.4q1.3 2.4 1.2 4.7-0.1 2.3-1.7 3.7-1.7 1.5-5 1.5-3.2 0-5.2-1.4-2.1-1.3-3.6-4.1l-7.6-13.8q-1-1.9-2.5-2.6-1.5-0.7-3.5-0.7h-4.6v14.9q0 3.6-1.9 5.6-1.9 2.1-5.7 2.1zm28.6-23.7q-1.6-0.5-3.5-0.5h-4l-0.6 1.5q4.5 0 8.1-1zm-21-9.6h10.1q4.4 0 6.7-1.8 2.4-1.7 2.4-5.4-0.1-3.4-2.4-5.2-2.3-1.8-6.7-1.8h-10.1z"/>
						<path id="&lt;Compound Path&gt;" class="s1" d="m-633.5-2026.6q-3.9 0-5.9-2-2-2-2-5.9v-42.6q0-3.8 2-5.8 2-2.1 5.9-2.1h28.1q3 0 4.5 1.5 1.5 1.5 1.5 4.3 0 2.9-1.5 4.4-1.5 1.6-4.5 1.6h-21.4v11.1h19.6q2.9 0 4.4 1.5 1.5 1.5 1.5 4.4 0 2.9-1.5 4.3-1.5 1.5-4.4 1.5h-19.6v12h21.4q3 0 4.5 1.6 1.5 1.5 1.5 4.3 0 2.9-1.5 4.4-1.5 1.5-4.5 1.5z"/>
						<path id="&lt;Compound Path&gt;" class="s1" d="m-568.9-2025.7q-3.3 0-6.9-0.4-3.6-0.5-6.8-1.4-3.3-0.9-5.8-2.2-2.3-1-3.2-2.8-0.9-1.8-0.6-3.8 0.2-2 1.4-3.5 1.1-1.5 3-2.1 1.9-0.5 4.3 0.6 3.2 1.5 7.2 2.3 3.9 0.8 7.4 0.8 5.5 0 7.7-1.4 2.2-1.5 2.2-3.6 0-2-1.6-3.1-1.5-1.2-5.4-2l-9.7-2.1q-7.9-1.6-11.8-5.8-3.9-4.1-3.9-10.6 0-4.4 1.8-7.9 1.8-3.5 5-6 3.3-2.5 7.8-3.8 4.5-1.4 10.1-1.4 4.3 0 8.7 1 4.4 0.9 7.7 2.8 1.9 1 2.7 2.7 0.8 1.8 0.7 3.6-0.2 1.9-1.3 3.3-1.1 1.4-3 1.9-1.9 0.4-4.4-0.6-2.4-1.1-5.5-1.7-3-0.5-5.8-0.5-3.1 0-5.2 0.7-2.2 0.7-3.3 2-1.1 1.4-1.1 3.1 0 1.7 1.5 2.9 1.4 1.2 5.3 2.1l9.6 2q8 1.8 12 5.8 4 3.9 4 10.3 0 4.3-1.8 7.8-1.7 3.5-4.9 5.9-3.3 2.5-7.8 3.8-4.6 1.3-10.3 1.3z"/>
						<path id="&lt;Compound Path&gt;" class="s1" d="m-514.1-2025.7q-3.3 0-6.9-0.5-3.7-0.4-6.9-1.3-3.2-0.9-5.8-2.2-2.2-1-3.1-2.8-0.9-1.8-0.7-3.8 0.3-2 1.4-3.5 1.2-1.5 3.1-2.1 1.9-0.5 4.3 0.5 3.1 1.5 7.1 2.4 4 0.8 7.5 0.8 5.4 0 7.6-1.5 2.2-1.4 2.2-3.6 0-1.9-1.5-3-1.5-1.2-5.4-2l-9.7-2.1q-8-1.6-11.9-5.8-3.9-4.1-3.9-10.7 0-4.3 1.8-7.8 1.8-3.5 5.1-6 3.2-2.5 7.7-3.8 4.6-1.4 10.1-1.4 4.3 0 8.7 0.9 4.5 1 7.7 2.9 1.9 1 2.7 2.7 0.9 1.8 0.7 3.6-0.2 1.9-1.3 3.3-1.1 1.4-3 1.9-1.8 0.4-4.4-0.7-2.4-1-5.4-1.6-3-0.5-5.9-0.5-3 0-5.2 0.7-2.1 0.7-3.2 2-1.2 1.4-1.2 3.1 0 1.7 1.5 2.9 1.4 1.2 5.3 2.1l9.6 2q8.1 1.8 12 5.7 4 4 4 10.4 0 4.3-1.7 7.8-1.8 3.5-5 5.9-3.2 2.4-7.8 3.8-4.5 1.3-10.2 1.3z"/>
					</g>
				</g>
				<g id="&lt;Group&gt;">
					<g id="&lt;Group&gt;">
						<path id="&lt;Compound Path&gt;" fill-rule="evenodd" class="s2" d="m-860.7-2099.9q-3.7 0-5.6-2-2-2-2-5.7v-43.7q0-3.7 2-5.7 2-2 5.7-2h20.3q10 0 15.4 4.8 5.4 4.9 5.4 13.5 0 5.5-2.4 9.6-2.5 4.1-7.1 6.3-1.4 0.7-3.1 1.2 1.5 0.4 2.8 1.2 2.7 1.7 4.5 5.2l4.2 7.5q1.3 2.4 1.2 4.7-0.1 2.2-1.8 3.7-1.7 1.4-4.9 1.4-3.2 0-5.3-1.3-2-1.3-3.6-4.1l-7.5-13.9q-1-1.8-2.5-2.5-1.6-0.7-3.5-0.7h-4.6v14.8q0 3.7-1.9 5.7-1.9 2-5.7 2zm28.6-23.7q-1.6-0.4-3.5-0.4h-4l-0.7 1.4q4.6 0 8.2-1zm-21-9.6h10.1q4.4 0 6.7-1.7 2.3-1.7 2.3-5.4 0-3.5-2.3-5.2-2.3-1.8-6.7-1.8h-10.1z"/>
						<path id="&lt;Compound Path&gt;" class="s2" d="m-801.1-2100.6q-3.9 0-5.9-2-2-2.1-2-5.9v-42.6q0-3.8 2-5.9 2-2 5.9-2h28.1q3 0 4.4 1.5 1.5 1.5 1.5 4.3 0 2.9-1.5 4.4-1.4 1.5-4.4 1.5l-21.5 0.1v11.1l19.7-0.1q2.9 0 4.4 1.5 1.5 1.5 1.5 4.4 0 2.9-1.5 4.4-1.5 1.5-4.4 1.5h-19.7v12h21.5q3 0 4.5 1.5 1.4 1.6 1.4 4.4 0 2.9-1.4 4.4-1.5 1.5-4.5 1.5z"/>
						<path id="&lt;Compound Path&gt;" fill-rule="evenodd" class="s2" d="m-749.4-2100.6q-3.9 0-5.9-2.1-2.1-2-2.1-5.8v-42.6q0-3.9 2.1-5.9 2-2 5.9-2h16.2q15.2 0 23.6 7.6 8.3 7.6 8.3 21.5 0 7-2.2 12.4-2.1 5.4-6.2 9.2-4 3.8-9.9 5.7-6 2-13.6 2zm7.3-12.4h8q4.3 0 7.5-1.1 3.2-1 5.3-3.1 2.1-2.1 3.2-5.2 1-3.2 1-7.5 0-8.6-4.2-12.7-4.2-4.1-12.9-4.1h-7.9z"/>
					</g>
				</g>
				<g id="&lt;Group&gt;">
					<g id="&lt;Group&gt;">
						<path id="&lt;Path&gt;" class="s2" d="m-901.1-2041.2q0.1 1.2 0 2.4c-0.3 7.1-6.1 12.8-13.2 12.8q-0.3 0-0.5 0c-7.3-0.3-13-6.5-12.8-13.8q0.1-0.7 0.1-1.4c0-21.5-17.7-38.9-39.4-38.9h-69.7q-0.3 0-0.7 0c-7.2 0.3-12.9 6.3-12.9 13.5 0 7.3 5.7 13.3 12.9 13.6h70c7.3 0 13.3 5.9 13.3 13.2 0 7.3-6 13.3-13.3 13.3h-65.1c-24.2 0-43.9-18-43.9-40 0-5.5 1.1-10.7 3.3-15.4-2.5 0.9-4.8 1.2-7.1 1.2-8.5 0-15.3-5.1-18.9-8.6-1.7-1.7-1.7-4.5 0-6.1 4.7-4.5 14.7-11.9 27-7.1-2.8-5.2-4.4-11-4.4-17.2 0-21.8 19.8-39.5 44-39.5h65.1c7.3 0 13.2 5.9 13.2 13.2 0.1 7.3-5.9 13.2-13.2 13.2h-68.7q-0.6 0-1.1 0-0.6 0-1.2 0h-0.4v0.1c-6.5 0.8-11.6 6.3-11.6 13 0 6.7 5.1 12.3 11.6 13.1h71.8c21.7 0 39.3-17.5 39.3-38.9 0-21.5-17.6-38.9-39.3-38.9h-96.2c-7.3 0-13.3-5.9-13.3-13.2 0-7.3 6-13.3 13.3-13.3h96.2c36.3 0 65.8 29.3 65.8 65.4 0 21.2-10.2 40.2-26.1 52.1 15.9 12 26.1 30.9 26.1 52.2z"/>
						<g id="&lt;Group&gt;">
							<path id="&lt;Path&gt;" class="s2" d="m-1038.4-2106.6h-0.3q0.2 0 0.3 0z"/>
							<path id="&lt;Path&gt;" class="s2" d="m-1038.3-2132.8q-0.2 0.1-0.4 0.1v-0.1z"/>
						</g>
						<g id="&lt;Group&gt;">
							<path id="&lt;Path&gt;" class="s2" d="m-1036.6-2053h-0.7q0.4 0 0.7 0z"/>
							<path id="&lt;Path&gt;" class="s2" d="m-1032.4-2080.1q-0.4 0-0.8 0h-2.8q-0.3 0-0.6 0z"/>
						</g>
					</g>
				</g>
			</g>
		</g>
		<path id="&lt;Path&gt;" class="s0" d="m-1334.1-433.8l1080-0.2 0.2 1080.1-1080 0.2z"/>
		<g id="&lt;Group&gt;">
			<g id="&lt;Group&gt;">
				<g id="&lt;Group&gt;">
					<g id="&lt;Group&gt;">
						<path id="&lt;Compound Path&gt;" class="s1" d="m-859.3 184.6q-3.9 0-5.9-2-2.1-2-2.1-5.8v-42.7q0-3.8 2.1-5.8 2-2 5.9-2l28.1-0.1q2.9 0 4.4 1.5 1.5 1.5 1.5 4.3 0 2.9-1.5 4.5-1.5 1.5-4.4 1.5h-21.5v11.1h19.6q2.9 0 4.5 1.5 1.5 1.5 1.5 4.4 0 2.9-1.5 4.4-1.6 1.5-4.5 1.5h-19.6v12h21.5q2.9 0 4.4 1.5 1.5 1.5 1.5 4.4 0 2.9-1.5 4.3-1.5 1.5-4.4 1.5z"/>
						<path id="&lt;Compound Path&gt;" class="s1" d="m-810.4 185.4q-2.9 0-4.8-1.6-1.9-1.6-2.2-4-0.3-2.4 1.6-4.9l17.6-23.2v6.9l-17.1-22.6q-1.9-2.5-1.6-5 0.3-2.4 2.2-3.9 1.9-1.6 4.8-1.6 2.4 0 4.2 1.2 1.9 1.1 3.7 3.7l12.3 17.1h-4.9l12.4-17.1q1.8-2.7 3.6-3.8 1.8-1.1 4.2-1.1 3 0 4.9 1.5 1.9 1.6 2.2 4 0.3 2.4-1.7 5l-17.1 22.6v-6.9l17.5 23.2q2 2.5 1.7 4.9-0.2 2.4-2.1 4-2 1.6-4.9 1.6-2.4 0-4.2-1.1-1.8-1.2-3.7-3.8l-12.8-17.7h4.8l-12.6 17.7q-1.9 2.6-3.7 3.8-1.9 1.1-4.3 1.1z"/>
						<path id="&lt;Compound Path&gt;" fill-rule="evenodd" class="s1" d="m-749.5 185.4q-3.7 0-5.6-2.1-2-2-2-5.6v-43.8q0-3.7 2-5.7 2-2 5.7-2h20.3q10 0 15.4 5.1 5.4 5.1 5.4 14.1 0 8.9-5.4 14-5.4 5.1-15.4 5.1h-12.8v13.2q0 3.6-1.9 5.6-1.9 2.1-5.7 2.1zm7.6-32.6h10.2q4.3 0 6.6-1.9 2.3-1.8 2.3-5.5 0-3.9-2.3-5.7-2.3-1.8-6.6-1.8h-10.2z"/>
						<path id="&lt;Compound Path&gt;" fill-rule="evenodd" class="s1" d="m-692.7 185.4q-3.6 0-5.6-2.1-2-2-2-5.6v-43.8q0-3.7 2-5.7 2-2 5.7-2h20.3q10 0 15.4 4.9 5.4 4.8 5.4 13.4 0 5.6-2.4 9.7-2.4 4.1-7 6.3-1.5 0.7-3.2 1.1 1.5 0.5 2.8 1.3 2.7 1.7 4.5 5.1l4.2 7.5q1.3 2.4 1.2 4.7-0.1 2.2-1.8 3.7-1.7 1.4-4.9 1.4-3.2 0-5.2-1.3-2.1-1.3-3.6-4.1l-7.6-13.8q-1-1.9-2.5-2.6-1.5-0.7-3.5-0.7h-4.6v14.9q0 3.6-1.9 5.6-1.9 2.1-5.7 2.1zm28.6-23.8q-1.6-0.4-3.5-0.4h-4l-0.6 1.5q4.5 0 8.1-1.1zm-21-9.5h10.1q4.4 0 6.7-1.8 2.3-1.7 2.3-5.4 0-3.4-2.3-5.2-2.3-1.8-6.7-1.8h-10.1z"/>
						<path id="&lt;Compound Path&gt;" class="s1" d="m-633.1 184.6q-3.9 0-5.9-2-2-2.1-2-5.9v-42.6q0-3.8 2-5.9 2-2 5.9-2h28.1q3 0 4.5 1.5 1.5 1.5 1.5 4.3 0 2.9-1.5 4.4-1.5 1.6-4.5 1.6h-21.5v11.1h19.7q2.9 0 4.4 1.5 1.5 1.4 1.5 4.3 0 2.9-1.5 4.4-1.5 1.5-4.4 1.5h-19.7v12h21.5q3 0 4.5 1.6 1.5 1.5 1.5 4.3 0 2.9-1.5 4.4-1.5 1.5-4.5 1.5z"/>
						<path id="&lt;Compound Path&gt;" class="s1" d="m-568.5 185.5q-3.3 0-6.9-0.5-3.6-0.4-6.8-1.3-3.3-0.9-5.8-2.2-2.3-1-3.2-2.8-0.9-1.8-0.6-3.8 0.2-2 1.4-3.5 1.1-1.5 3-2.1 1.9-0.5 4.3 0.5 3.2 1.5 7.2 2.4 3.9 0.8 7.4 0.8 5.5 0 7.7-1.5 2.2-1.4 2.2-3.6 0-1.9-1.6-3-1.5-1.2-5.4-2l-9.7-2.1q-7.9-1.6-11.8-5.8-3.9-4.1-3.9-10.7 0-4.3 1.8-7.8 1.7-3.5 5-6 3.3-2.5 7.8-3.8 4.5-1.4 10.1-1.4 4.3 0 8.7 0.9 4.4 1 7.7 2.9 1.9 1 2.7 2.7 0.8 1.8 0.7 3.6-0.2 1.9-1.3 3.3-1.1 1.4-3 1.9-1.9 0.4-4.4-0.7-2.4-1-5.5-1.6-3-0.5-5.8-0.5-3.1 0-5.2 0.7-2.2 0.7-3.3 2-1.1 1.4-1.1 3.1 0 1.7 1.4 2.9 1.5 1.2 5.4 2.1l9.6 2q8 1.8 12 5.7 4 4 4 10.4 0 4.3-1.8 7.8-1.7 3.5-4.9 5.9-3.3 2.4-7.8 3.8-4.6 1.3-10.3 1.3z"/>
						<path id="&lt;Compound Path&gt;" class="s1" d="m-513.7 185.5q-3.4 0-7-0.5-3.6-0.4-6.8-1.3-3.2-0.9-5.8-2.2-2.2-1.1-3.1-2.8-0.9-1.8-0.7-3.8 0.2-2 1.4-3.5 1.2-1.6 3.1-2.1 1.9-0.5 4.3 0.5 3.1 1.5 7.1 2.4 4 0.8 7.5 0.8 5.4 0 7.6-1.5 2.2-1.4 2.2-3.6 0-1.9-1.5-3-1.6-1.2-5.4-2l-9.7-2.1q-8-1.6-11.9-5.8-3.9-4.1-3.9-10.7 0-4.3 1.8-7.8 1.8-3.5 5.1-6 3.2-2.5 7.7-3.9 4.6-1.3 10.1-1.3 4.3 0 8.7 0.9 4.5 1 7.7 2.9 1.9 1 2.7 2.7 0.9 1.8 0.7 3.6-0.2 1.9-1.3 3.3-1.1 1.4-3 1.9-1.8 0.4-4.4-0.7-2.4-1-5.4-1.6-3-0.5-5.9-0.5-3 0-5.2 0.7-2.1 0.7-3.3 2-1.1 1.3-1.1 3.1 0 1.7 1.5 2.9 1.4 1.2 5.3 2.1l9.6 2q8.1 1.8 12 5.7 4 4 4 10.4 0 4.3-1.7 7.8-1.8 3.4-5 5.9-3.2 2.4-7.8 3.8-4.5 1.3-10.2 1.3z"/>
					</g>
				</g>
				<g id="&lt;Group&gt;">
					<g id="&lt;Group&gt;">
						<path id="&lt;Compound Path&gt;" fill-rule="evenodd" class="s1" d="m-860.3 111.3q-3.7 0-5.7-2-1.9-2-1.9-5.7v-43.7q0-3.7 2-5.7 2-2 5.7-2h20.3q10 0 15.4 4.8 5.4 4.9 5.4 13.5 0 5.5-2.4 9.6-2.5 4.1-7.1 6.3-1.4 0.7-3.1 1.2 1.5 0.4 2.8 1.2 2.7 1.7 4.5 5.2l4.2 7.5q1.3 2.4 1.2 4.6-0.1 2.3-1.8 3.8-1.7 1.4-4.9 1.4-3.2 0-5.3-1.3-2-1.3-3.6-4.1l-7.5-13.9q-1-1.8-2.5-2.5-1.6-0.7-3.6-0.7h-4.5v14.8q0 3.7-1.9 5.7-1.9 2-5.7 2zm28.6-23.7q-1.7-0.5-3.5-0.5h-4l-0.7 1.5q4.6 0 8.2-1zm-21-9.6h10.1q4.4 0 6.7-1.7 2.3-1.8 2.3-5.4 0-3.5-2.3-5.3-2.3-1.7-6.7-1.7h-10.1z"/>
						<path id="&lt;Compound Path&gt;" class="s1" d="m-800.7 110.6q-3.9 0-5.9-2.1-2-2-2-5.8l-0.1-42.6q0-3.9 2.1-5.9 2-2 5.9-2h28.1q2.9 0 4.4 1.5 1.5 1.5 1.5 4.3 0 2.9-1.5 4.4-1.5 1.5-4.4 1.5h-21.5v11.1h19.6q2.9 0 4.5 1.5 1.5 1.5 1.5 4.4 0 2.9-1.5 4.4-1.6 1.5-4.4 1.5h-19.7v12h21.5q3 0 4.4 1.5 1.5 1.6 1.5 4.4 0 2.9-1.5 4.4-1.4 1.5-4.4 1.5z"/>
						<path id="&lt;Compound Path&gt;" fill-rule="evenodd" class="s1" d="m-749 110.6q-3.9 0-5.9-2.1-2.1-2-2.1-5.8v-42.7q0-3.8 2-5.8 2.1-2 6-2h16.2q15.2 0 23.6 7.6 8.3 7.6 8.3 21.5 0 7-2.2 12.4-2.1 5.4-6.2 9.2-4 3.8-10 5.7-5.9 2-13.5 2zm7.3-12.4h7.9q4.4 0 7.6-1.1 3.2-1 5.3-3.1 2.1-2.1 3.2-5.2 1-3.2 1-7.5 0-8.6-4.2-12.7-4.3-4.1-12.9-4.1h-7.9z"/>
					</g>
				</g>
				<g id="&lt;Group&gt;">
					<g id="&lt;Group&gt;">
						<path id="&lt;Path&gt;" class="s1" d="m-900.7 169.9q0 1.3 0 2.5c-0.3 7.1-6.1 12.8-13.2 12.8q-0.3 0-0.5-0.1c-7.3-0.2-13-6.4-12.8-13.7q0.1-0.7 0.1-1.5c0-21.4-17.7-38.8-39.4-38.8h-69.7q-0.4 0-0.7 0c-7.2 0.3-12.9 6.3-12.9 13.5 0 7.3 5.7 13.2 12.9 13.6h70c7.3 0 13.3 5.9 13.3 13.2 0 7.3-6 13.3-13.3 13.3h-65.1c-24.2 0-44-18-44-40.1 0-5.4 1.2-10.6 3.4-15.3-2.5 0.8-4.8 1.2-7.1 1.2-8.5 0-15.3-5.1-18.9-8.6-1.7-1.7-1.7-4.5 0-6.1 4.7-4.5 14.7-11.9 27-7.1-2.8-5.2-4.4-11-4.4-17.2 0-21.8 19.8-39.5 44-39.5l65.1-0.1c7.3 0 13.2 6 13.2 13.3 0 7.3-5.9 13.2-13.2 13.2h-68.7q-0.6 0-1.1 0-0.6 0-1.2 0h-0.4v0.1c-6.5 0.8-11.6 6.3-11.6 13 0 6.7 5.1 12.3 11.6 13v0.1h71.8c21.7 0 39.3-17.5 39.3-38.9 0-21.5-17.6-38.9-39.3-38.9h-96.2c-7.3 0-13.3-5.9-13.3-13.2 0-7.4 6-13.3 13.3-13.3h96.2c36.3 0 65.8 29.3 65.8 65.4 0 21.2-10.2 40.1-26.1 52.1 15.9 12 26.1 30.9 26.1 52.1z"/>
						<g id="&lt;Group&gt;">
							<path id="&lt;Path&gt;" class="s1" d="m-1038 104.6h-0.3v-0.1q0.2 0.1 0.3 0.1z"/>
							<path id="&lt;Path&gt;" class="s1" d="m-1037.9 78.4q-0.2 0-0.4 0.1v-0.1z"/>
						</g>
						<g id="&lt;Group&gt;">
							<path id="&lt;Path&gt;" class="s1" d="m-1036.2 158.2h-0.7q0.4 0 0.7 0z"/>
							<path id="&lt;Path&gt;" class="s1" d="m-1032 131.1q-0.4 0-0.8 0h-2.8q-0.3 0-0.6 0z"/>
						</g>
					</g>
				</g>
			</g>
		</g>
		<path id="&lt;Path&gt;" class="s2" d="m-234.5-2645.2l1080-0.2 0.2 1080.1-1080 0.2z"/>
		<g id="&lt;Group&gt;">
			<g id="&lt;Group&gt;">
				<g id="&lt;Group&gt;">
					<g id="&lt;Group&gt;">
						<path id="&lt;Compound Path&gt;" class="s0" d="m240.3-2026.7q-3.9 0-5.9-2.1-2.1-2-2.1-5.8v-42.7q0-3.8 2.1-5.8 2-2 5.9-2h28.1q2.9 0 4.4 1.5 1.5 1.4 1.5 4.3 0 2.9-1.5 4.4-1.5 1.5-4.4 1.5h-21.5v11.1h19.6q2.9 0 4.5 1.5 1.5 1.5 1.5 4.4 0 2.9-1.5 4.4-1.6 1.5-4.5 1.5h-19.6v12h21.5q2.9 0 4.4 1.5 1.5 1.6 1.5 4.4 0 2.9-1.5 4.4-1.4 1.4-4.4 1.5z"/>
						<path id="&lt;Compound Path&gt;" class="s0" d="m289.2-2026q-2.9 0-4.8-1.6-1.9-1.6-2.2-4-0.3-2.4 1.7-4.8l17.5-23.2v6.8l-17.1-22.6q-1.9-2.5-1.6-4.9 0.3-2.4 2.2-4 1.9-1.6 4.8-1.6 2.4 0 4.2 1.2 1.9 1.1 3.7 3.7l12.3 17.1h-4.9l12.4-17.1q1.8-2.7 3.6-3.8 1.8-1.1 4.3-1.1 2.9 0 4.8 1.5 1.9 1.6 2.2 4 0.3 2.4-1.7 5l-17.1 22.6v-6.8l17.6 23.1q1.9 2.5 1.7 4.9-0.3 2.4-2.2 4-1.9 1.6-4.9 1.6-2.3 0-4.2-1.1-1.8-1.1-3.7-3.8l-12.7-17.6h4.8l-12.7 17.6q-1.9 2.7-3.7 3.8-1.9 1.1-4.3 1.1z"/>
						<path id="&lt;Compound Path&gt;" fill-rule="evenodd" class="s0" d="m350.1-2026q-3.6 0-5.6-2-2-2.1-2-5.7v-43.7q0-3.8 2-5.8 2-1.9 5.7-2h20.3q10 0 15.4 5.1 5.4 5.1 5.4 14.1 0 8.9-5.4 14-5.4 5.1-15.3 5.1h-12.9v13.2q0 3.6-1.9 5.7-1.9 2-5.7 2zm7.6-32.6h10.2q4.3 0 6.6-1.8 2.3-1.9 2.3-5.6 0-3.8-2.3-5.7-2.3-1.8-6.6-1.8h-10.2z"/>
						<path id="&lt;Compound Path&gt;" fill-rule="evenodd" class="s0" d="m406.9-2026q-3.6 0-5.6-2.1-2-2-2-5.6v-43.8q0-3.7 2-5.7 2-2 5.7-2h20.4q9.9 0 15.3 4.9 5.4 4.8 5.4 13.4 0 5.6-2.4 9.7-2.4 4.1-7 6.3-1.5 0.7-3.2 1.2 1.5 0.4 2.8 1.2 2.7 1.7 4.5 5.2l4.2 7.4q1.3 2.4 1.2 4.7-0.1 2.3-1.7 3.7-1.7 1.5-5 1.5-3.2 0-5.2-1.4-2.1-1.3-3.6-4.1l-7.6-13.8q-1-1.8-2.5-2.6-1.5-0.7-3.5-0.7h-4.6v14.9q0 3.6-1.9 5.6-1.9 2.1-5.7 2.1zm28.6-23.7q-1.6-0.5-3.5-0.5h-4l-0.6 1.5q4.5 0 8.1-1zm-21-9.6h10.1q4.4 0 6.7-1.8 2.4-1.7 2.4-5.3-0.1-3.5-2.4-5.3-2.3-1.8-6.7-1.8h-10.1z"/>
						<path id="&lt;Compound Path&gt;" class="s0" d="m466.5-2026.8q-3.9 0-5.9-2-2-2-2-5.9v-42.6q0-3.8 2-5.8 2-2.1 5.9-2.1h28.1q3 0 4.5 1.5 1.5 1.5 1.5 4.3 0 2.9-1.5 4.5-1.5 1.5-4.5 1.5h-21.4v11.1h19.6q2.9 0 4.4 1.5 1.5 1.5 1.5 4.4 0 2.9-1.5 4.4-1.5 1.4-4.4 1.4h-19.6v12.1h21.4q3 0 4.5 1.5 1.5 1.5 1.5 4.3 0 2.9-1.5 4.4-1.5 1.5-4.5 1.5z"/>
						<path id="&lt;Compound Path&gt;" class="s0" d="m531.1-2025.9q-3.3 0-6.9-0.4-3.6-0.5-6.8-1.4-3.3-0.9-5.8-2.2-2.3-1-3.2-2.8-0.9-1.8-0.6-3.8 0.2-2 1.4-3.5 1.1-1.5 3-2.1 1.9-0.5 4.3 0.6 3.2 1.5 7.2 2.3 3.9 0.8 7.4 0.8 5.5 0 7.7-1.4 2.2-1.5 2.2-3.6 0-1.9-1.6-3.1-1.5-1.2-5.4-2l-9.7-2.1q-7.9-1.6-11.8-5.8-3.9-4.1-3.9-10.6 0-4.3 1.8-7.9 1.8-3.5 5-6 3.3-2.5 7.8-3.8 4.5-1.4 10.1-1.4 4.3 0 8.7 1 4.4 0.9 7.7 2.8 1.9 1 2.7 2.7 0.8 1.8 0.7 3.6-0.2 1.9-1.3 3.3-1.1 1.4-3 1.9-1.9 0.4-4.4-0.6-2.4-1.1-5.5-1.7-3-0.5-5.8-0.5-3.1 0-5.2 0.7-2.2 0.7-3.3 2-1.1 1.4-1.1 3.1 0 1.8 1.5 3 1.4 1.2 5.3 2l9.6 2q8 1.8 12 5.8 4 3.9 4 10.3 0 4.3-1.8 7.8-1.7 3.5-4.9 5.9-3.3 2.5-7.8 3.8-4.6 1.3-10.3 1.3z"/>
						<path id="&lt;Compound Path&gt;" class="s0" d="m585.9-2025.9q-3.3 0-6.9-0.4-3.7-0.5-6.9-1.4-3.2-0.9-5.8-2.2-2.2-1-3.1-2.8-0.9-1.8-0.7-3.8 0.3-2 1.4-3.5 1.2-1.5 3.1-2.1 1.9-0.5 4.3 0.6 3.1 1.4 7.1 2.3 4 0.8 7.5 0.8 5.4 0 7.6-1.5 2.2-1.4 2.2-3.6 0-1.9-1.5-3-1.5-1.2-5.4-2l-9.7-2.1q-8-1.6-11.9-5.8-3.9-4.1-3.9-10.7 0-4.3 1.8-7.8 1.8-3.5 5.1-6 3.2-2.5 7.7-3.8 4.6-1.4 10.1-1.4 4.3 0 8.7 0.9 4.5 1 7.7 2.9 1.9 1 2.7 2.7 0.9 1.8 0.7 3.6-0.2 1.9-1.3 3.3-1.1 1.4-3 1.9-1.8 0.4-4.4-0.6-2.4-1.1-5.4-1.7-3-0.5-5.9-0.5-3 0-5.2 0.7-2.1 0.7-3.2 2-1.2 1.4-1.2 3.1 0 1.7 1.5 2.9 1.4 1.2 5.3 2.1l9.6 2q8.1 1.8 12 5.7 4 4 4 10.4 0 4.3-1.7 7.8-1.8 3.5-5 5.9-3.2 2.5-7.8 3.8-4.5 1.3-10.2 1.3z"/>
					</g>
				</g>
				<g id="&lt;Group&gt;">
					<g id="&lt;Group&gt;">
						<path id="&lt;Compound Path&gt;" fill-rule="evenodd" class="s0" d="m239.3-2100.1q-3.7 0-5.6-2-2-2-2-5.7v-43.7q0-3.7 2-5.7 2-2 5.7-2h20.3q10 0 15.4 4.8 5.4 4.9 5.4 13.5 0 5.6-2.4 9.7-2.5 4.1-7.1 6.2-1.4 0.7-3.1 1.2 1.5 0.4 2.8 1.3 2.7 1.6 4.5 5.1l4.2 7.5q1.3 2.4 1.2 4.7-0.1 2.2-1.8 3.7-1.7 1.4-4.9 1.4-3.2 0-5.3-1.3-2-1.3-3.6-4.1l-7.5-13.9q-1-1.8-2.5-2.5-1.6-0.7-3.5-0.7h-4.6v14.8q0 3.7-1.9 5.7-1.9 2-5.7 2zm28.6-23.7q-1.6-0.4-3.5-0.4h-4l-0.7 1.4q4.6 0 8.2-1zm-21-9.6h10.1q4.4 0 6.7-1.7 2.3-1.7 2.3-5.4 0-3.5-2.3-5.2-2.3-1.8-6.7-1.8h-10.1z"/>
						<path id="&lt;Compound Path&gt;" class="s0" d="m298.9-2100.8q-3.9 0-5.9-2-2-2.1-2-5.9v-42.6q0-3.8 2-5.9 2-2 5.9-2h28.1q3 0 4.4 1.5 1.5 1.5 1.5 4.3 0 2.9-1.5 4.4-1.4 1.6-4.4 1.6h-21.5v11.1h19.7q2.9 0 4.4 1.4 1.5 1.5 1.5 4.4 0 2.9-1.5 4.4-1.5 1.5-4.4 1.5h-19.7v12h21.5q3 0 4.5 1.6 1.4 1.5 1.4 4.3 0 2.9-1.4 4.4-1.5 1.5-4.5 1.5z"/>
						<path id="&lt;Compound Path&gt;" fill-rule="evenodd" class="s0" d="m350.6-2100.8q-3.9 0-5.9-2.1-2.1-2-2.1-5.8v-42.6q0-3.8 2.1-5.9 2-2 5.9-2h16.2q15.2 0 23.6 7.6 8.3 7.6 8.3 21.5 0 7-2.2 12.4-2.1 5.4-6.2 9.2-4 3.8-9.9 5.7-6 2-13.6 2zm7.3-12.4h8q4.3 0 7.5-1 3.2-1.1 5.3-3.2 2.1-2.1 3.2-5.2 1-3.2 1-7.5 0-8.6-4.2-12.7-4.2-4.1-12.9-4.1h-7.9z"/>
					</g>
				</g>
				<g id="&lt;Group&gt;">
					<g id="&lt;Group&gt;">
						<path id="&lt;Path&gt;" class="s0" d="m198.9-2041.4q0.1 1.2 0 2.4c-0.3 7.2-6.1 12.8-13.2 12.8q-0.3 0-0.5 0c-7.3-0.3-13-6.5-12.8-13.8q0.1-0.7 0.1-1.4c0-21.5-17.7-38.9-39.4-38.9h-69.7q-0.3 0-0.7 0c-7.2 0.3-12.9 6.3-12.9 13.6 0 7.2 5.7 13.2 12.9 13.5h70c7.3 0 13.3 5.9 13.3 13.2 0 7.3-6 13.3-13.3 13.3h-65.1c-24.2 0-43.9-18-43.9-40 0-5.5 1.1-10.7 3.3-15.4-2.5 0.9-4.8 1.2-7.1 1.2-8.5 0-15.3-5.1-18.9-8.6-1.7-1.7-1.7-4.5 0-6.1 4.7-4.5 14.7-11.9 27-7.1-2.8-5.2-4.4-11-4.4-17.2 0-21.8 19.8-39.5 44-39.5h65.1c7.3 0 13.2 5.9 13.2 13.2 0.1 7.3-5.9 13.2-13.2 13.2l-68.7 0.1q-0.6-0.1-1.1-0.1-0.6 0-1.2 0.1h-0.4c-6.5 0.8-11.6 6.3-11.6 13 0 6.7 5.1 12.3 11.6 13.1h71.8c21.7 0 39.3-17.5 39.3-38.9 0-21.5-17.6-38.9-39.3-38.9h-96.2c-7.3 0-13.3-5.9-13.3-13.2 0-7.3 6-13.3 13.3-13.3h96.2c36.3 0 65.8 29.3 65.8 65.4 0 21.2-10.2 40.2-26.1 52.1 15.9 12 26.1 30.9 26.1 52.2z"/>
						<g id="&lt;Group&gt;">
							<path id="&lt;Path&gt;" class="s0" d="m61.6-2106.8h-0.3q0.2 0 0.3 0z"/>
							<path id="&lt;Path&gt;" class="s0" d="m61.7-2132.9q-0.2 0-0.4 0z"/>
						</g>
						<g id="&lt;Group&gt;">
							<path id="&lt;Path&gt;" class="s0" d="m63.4-2053.2h-0.7q0.4 0 0.7 0z"/>
							<path id="&lt;Path&gt;" class="s0" d="m67.6-2080.3q-0.4 0-0.8 0h-2.8q-0.3 0-0.6 0z"/>
						</g>
					</g>
				</g>
			</g>
		</g>
		<g id="&lt;Group&gt;">
			<g id="&lt;Group&gt;">
				<g id="&lt;Group&gt;">
					<path id="&lt;Compound Path&gt;" class="s3" d="m240.7 184.4q-3.9 0-5.9-2-2.1-2-2.1-5.8v-42.7q0-3.8 2.1-5.8 2-2 5.9-2h28.1q2.9 0 4.4 1.4 1.5 1.5 1.5 4.3 0 2.9-1.5 4.5-1.5 1.5-4.4 1.5h-21.5v11.1h19.6q2.9 0 4.5 1.5 1.5 1.5 1.5 4.4 0 2.9-1.5 4.4-1.6 1.5-4.5 1.5h-19.6v12h21.5q2.9 0 4.4 1.5 1.5 1.5 1.5 4.4 0 2.9-1.5 4.3-1.5 1.5-4.4 1.5z"/>
					<path id="&lt;Compound Path&gt;" class="s3" d="m289.6 185.2q-2.9 0-4.8-1.6-1.9-1.6-2.2-4-0.3-2.4 1.6-4.9l17.6-23.1v6.8l-17.1-22.6q-1.9-2.5-1.6-4.9 0.3-2.4 2.2-4 1.9-1.6 4.8-1.6 2.4 0 4.2 1.2 1.9 1.1 3.7 3.7l12.3 17.1h-4.9l12.4-17.1q1.8-2.7 3.6-3.8 1.8-1.1 4.2-1.1 3 0 4.9 1.5 1.9 1.6 2.2 4 0.3 2.4-1.7 5l-17.1 22.6v-6.8l17.5 23.1q2 2.5 1.7 4.9-0.2 2.4-2.1 4-2 1.6-4.9 1.6-2.4 0-4.2-1.1-1.8-1.2-3.7-3.8l-12.8-17.6 4.8-0.1-12.6 17.7q-1.9 2.6-3.7 3.8-1.9 1.1-4.3 1.1z"/>
					<path id="&lt;Compound Path&gt;" fill-rule="evenodd" class="s3" d="m350.5 185.2q-3.7 0-5.6-2.1-2-2-2-5.6v-43.8q0-3.7 2-5.7 2-2 5.7-2h20.3q10 0 15.4 5.1 5.4 5.1 5.4 14.1 0 8.9-5.4 14-5.4 5.1-15.4 5.1h-12.8v13.2q0 3.6-1.9 5.6-1.9 2.1-5.7 2.1zm7.6-32.6h10.2q4.3 0 6.6-1.8 2.3-1.9 2.3-5.6 0-3.8-2.3-5.7-2.3-1.8-6.6-1.8h-10.2z"/>
					<path id="&lt;Compound Path&gt;" fill-rule="evenodd" class="s4" d="m407.3 185.2q-3.6 0-5.6-2.1-2-2-2-5.6v-43.8q0-3.7 2-5.7 2-2 5.7-2h20.3q10 0 15.4 4.9 5.4 4.8 5.4 13.4 0 5.6-2.4 9.7-2.4 4.1-7 6.3c-1.4 0.6-2.3 0.9-3 1.1 1.4 0 1 0.3 2.6 1.3q2.7 1.7 4.5 5.1l4.2 7.5q1.3 2.4 1.2 4.7-0.1 2.3-1.8 3.7-1.7 1.5-4.9 1.5-3.2 0-5.2-1.4-2.1-1.3-3.6-4.1l-7.6-13.8q-1-1.9-2.5-2.6-1.5-0.7-3.5-0.7h-4.6v14.9q0 3.6-1.9 5.6-1.9 2.1-5.7 2.1zm28.2-23.7h-1.6c0.5 0 0.9 0 1.6 0zm0.1 0q-0.1 0-0.1 0zm-0.1 0q0.3-0.1 0.5-0.1-0.3 0-0.8 0zm-20.7-9.6h10.1q4.4 0 6.7-1.8 2.4-1.7 2.4-5.4 0-3.4-2.4-5.2-2.3-1.8-6.7-1.8h-10.1z"/>
					<path id="&lt;Compound Path&gt;" class="s3" d="m466.9 184.4q-3.9 0-5.9-2-2-2.1-2-5.9v-42.6q0-3.8 2-5.9 2-2 5.9-2h28.1q3 0 4.5 1.5 1.5 1.5 1.5 4.3 0 2.9-1.5 4.4-1.5 1.6-4.5 1.6h-21.5v11.1h19.7q2.9 0 4.4 1.5 1.5 1.5 1.5 4.3 0 2.9-1.5 4.4-1.5 1.5-4.4 1.5h-19.7v12h21.5q3 0 4.5 1.6 1.5 1.5 1.5 4.3 0 2.9-1.5 4.4-1.5 1.5-4.5 1.5z"/>
					<path id="&lt;Compound Path&gt;" class="s3" d="m531.5 185.3q-3.3 0-6.9-0.5-3.6-0.4-6.8-1.3-3.3-0.9-5.8-2.2-2.3-1-3.2-2.8-0.9-1.8-0.6-3.8 0.2-2 1.4-3.5 1.1-1.5 3-2.1 1.9-0.5 4.3 0.6 3.2 1.4 7.2 2.3 3.9 0.8 7.4 0.8 5.5 0 7.7-1.5 2.2-1.4 2.2-3.6 0-1.9-1.6-3-1.5-1.2-5.4-2l-9.7-2.1q-7.9-1.6-11.8-5.8-3.9-4.1-3.9-10.7 0-4.3 1.8-7.8 1.7-3.5 5-6 3.3-2.5 7.8-3.8 4.5-1.4 10.1-1.4 4.3 0 8.7 0.9 4.4 1 7.7 2.9 1.9 1 2.7 2.7 0.8 1.8 0.7 3.6-0.2 1.9-1.3 3.3-1.1 1.4-3 1.9-1.9 0.4-4.4-0.6-2.4-1.1-5.5-1.7-3-0.5-5.8-0.5-3.1 0-5.2 0.7-2.2 0.7-3.3 2-1.1 1.4-1.1 3.1 0 1.7 1.4 2.9 1.5 1.2 5.4 2.1l9.6 2q8 1.8 12 5.7 4 4 4 10.4 0 4.3-1.8 7.8-1.7 3.5-4.9 5.9-3.3 2.5-7.8 3.8-4.6 1.3-10.3 1.3z"/>
					<path id="&lt;Compound Path&gt;" class="s3" d="m586.3 185.3q-3.4 0-7-0.5-3.6-0.4-6.8-1.3-3.2-0.9-5.8-2.2-2.2-1.1-3.1-2.8-0.9-1.8-0.7-3.8 0.2-2 1.4-3.5 1.2-1.6 3.1-2.1 1.9-0.5 4.3 0.5 3.1 1.5 7.1 2.4 4 0.8 7.5 0.8 5.4 0 7.6-1.5 2.2-1.4 2.2-3.6 0-1.9-1.5-3-1.6-1.2-5.4-2l-9.7-2.1q-8-1.6-11.9-5.8-3.9-4.1-3.9-10.7 0-4.3 1.8-7.8 1.8-3.5 5.1-6 3.2-2.5 7.7-3.8 4.6-1.4 10.1-1.4 4.3 0 8.7 0.9 4.5 1 7.7 2.9 1.9 1 2.7 2.7 0.9 1.8 0.7 3.6-0.2 1.9-1.3 3.3-1.1 1.4-3 1.9-1.8 0.4-4.4-0.7-2.4-1-5.4-1.6-3-0.5-5.9-0.5-3 0-5.2 0.7-2.1 0.7-3.3 2-1.1 1.4-1.1 3.1 0 1.7 1.5 2.9 1.4 1.2 5.3 2.1l9.6 2q8.1 1.8 12 5.7 4 4 4 10.4 0 4.3-1.7 7.8-1.8 3.5-5 5.9-3.2 2.4-7.8 3.8-4.5 1.3-10.2 1.3z"/>
				</g>
			</g>
			<g id="&lt;Group&gt;">
				<g id="&lt;Group&gt;">
					<path id="&lt;Compound Path&gt;" fill-rule="evenodd" class="s4" d="m239.7 111.1q-3.7 0-5.7-2-1.9-2-1.9-5.7v-43.7q0-3.7 2-5.7 2-2 5.7-2h20.3q10 0 15.4 4.8 5.4 4.9 5.4 13.5 0 5.5-2.4 9.6-2.5 4.1-7.1 6.3c-1.7 0.9-2 1.2-2.8 1.3 1.4 0 0.9 0.2 2.5 1.1q2.7 1.7 4.5 5.2l4.2 7.5q1.3 2.4 1.2 4.6-0.1 2.3-1.8 3.8-1.7 1.4-4.9 1.4-3.2 0-5.3-1.3-2-1.3-3.6-4.1l-7.5-13.9q-1-1.8-2.5-2.5-1.6-0.7-3.6-0.7h-4.5v14.8q0 3.7-1.9 5.7-1.9 2-5.7 2zm28.9-23.6q0 0-0.1 0l-3.2 0.1c1.9 0 2.7 0 3.3-0.1zm0 0h-0.8q0.4 0 0.7 0zm-21.3-9.7h10.1q4.4 0 6.7-1.7 2.3-1.7 2.3-5.4 0-3.5-2.3-5.2-2.3-1.8-6.7-1.8h-10.1z"/>
					<path id="&lt;Compound Path&gt;" class="s3" d="m299.3 110.4q-3.9 0-5.9-2.1-2-2-2-5.8l-0.1-42.6q0-3.9 2.1-5.9 2-2 5.9-2h28.1q2.9 0 4.4 1.5 1.5 1.5 1.5 4.3 0 2.9-1.5 4.4-1.5 1.5-4.4 1.5h-21.5v11.1h19.6q2.9 0 4.5 1.5 1.5 1.5 1.5 4.4 0 2.9-1.5 4.4-1.6 1.5-4.4 1.5h-19.7v12h21.5q3 0 4.4 1.5 1.5 1.6 1.5 4.4 0 2.9-1.5 4.4-1.4 1.5-4.4 1.5z"/>
					<path id="&lt;Compound Path&gt;" fill-rule="evenodd" class="s3" d="m351 110.4q-3.9 0-5.9-2.1-2.1-2-2.1-5.8v-42.7q0-3.8 2-5.8 2.1-2 6-2h16.2q15.2 0 23.6 7.6 8.3 7.6 8.3 21.5 0 7-2.2 12.4-2.1 5.4-6.2 9.2-4 3.8-10 5.7-5.9 2-13.5 2zm7.3-12.4h7.9q4.4 0 7.6-1.1 3.2-1 5.3-3.1 2.1-2.1 3.2-5.2 1-3.2 1-7.5 0-8.6-4.2-12.7-4.3-4.1-12.9-4.1h-7.9z"/>
				</g>
			</g>
			<g id="&lt;Group&gt;">
				<g id="&lt;Group&gt;">
					<path id="&lt;Path&gt;" class="s0" d="m199.3 169.7q0 1.3 0 2.5c-0.3 7.1-6.1 12.8-13.2 12.8q-0.3 0-0.5 0c-7.3-0.3-13-6.5-12.8-13.8q0.1-0.7 0.1-1.5c0-21.4-17.7-38.8-39.4-38.8h-69.7q-0.4 0-0.7 0c-7.2 0.3-12.9 6.3-12.9 13.5 0 7.3 5.7 13.2 12.9 13.6h70c7.3 0 13.3 5.9 13.3 13.2 0 7.3-6 13.3-13.3 13.3h-65.1c-24.2 0-44-18-44-40.1 0-5.4 1.2-10.6 3.4-15.3-2.5 0.9-4.8 1.2-7.1 1.2-8.5 0-15.3-5.1-18.9-8.6-1.7-1.7-1.7-4.5 0-6.1 4.7-4.5 14.7-11.9 27-7.1-2.8-5.2-4.4-11-4.4-17.2 0-21.8 19.8-39.5 44-39.5h65.1c7.3-0.1 13.2 5.9 13.2 13.2 0 7.3-5.9 13.2-13.2 13.2h-68.7q-0.6 0-1.1 0-0.6 0-1.2 0h-0.4v0.1c-6.5 0.8-11.6 6.3-11.6 13 0 6.7 5.1 12.3 11.6 13v0.1h71.8c21.7 0 39.3-17.5 39.3-38.9 0-21.5-17.6-38.9-39.3-38.9h-96.2c-7.3 0-13.3-5.9-13.3-13.2 0-7.4 6-13.3 13.3-13.3h96.2c36.3 0 65.8 29.3 65.8 65.4 0 21.2-10.2 40.2-26.1 52.1 15.9 12 26.1 30.9 26.1 52.1z"/>
					<g id="&lt;Group&gt;">
						<path id="&lt;Path&gt;" class="s3" d="m62 104.4h-0.3v-0.1q0.2 0.1 0.3 0.1z"/>
						<path id="&lt;Path&gt;" class="s3" d="m62.1 78.2q-0.2 0.1-0.4 0.1v-0.1z"/>
					</g>
					<g id="&lt;Group&gt;">
						<path id="&lt;Path&gt;" class="s3" d="m63.8 158h-0.7q0.4 0 0.7 0z"/>
						<path id="&lt;Path&gt;" class="s3" d="m68 130.9q-0.4 0-0.8 0h-2.8q-0.3 0-0.6 0z"/>
					</g>
				</g>
			</g>
		</g>
		<path id="&lt;Path&gt;" class="s0" d="m-1334.3-1544.9l1080-0.2 0.2 1080.1-1080 0.2z"/>
		<g id="&lt;Group&gt;">
			<g id="&lt;Group&gt;">
				<g id="&lt;Group&gt;">
					<g id="&lt;Group&gt;">
						<path id="&lt;Compound Path&gt;" class="s1" d="m-859.5-926.5q-3.9 0-5.9-2-2.1-2-2.1-5.8v-42.7q0-3.8 2.1-5.8 2-2 5.9-2h28.1q2.9 0 4.4 1.4 1.5 1.5 1.5 4.3 0 2.9-1.5 4.5-1.5 1.5-4.4 1.5h-21.5v11.1h19.6q2.9 0 4.5 1.5 1.5 1.5 1.5 4.4 0 2.9-1.5 4.4-1.6 1.5-4.5 1.5h-19.6v12h21.5q2.9 0 4.4 1.5 1.5 1.5 1.5 4.4 0 2.9-1.5 4.3-1.5 1.5-4.4 1.5z"/>
						<path id="&lt;Compound Path&gt;" class="s1" d="m-810.6-925.7q-2.9 0-4.8-1.6-1.9-1.6-2.2-4-0.3-2.4 1.6-4.9l17.6-23.1v6.8l-17.1-22.6q-1.9-2.5-1.6-4.9 0.3-2.4 2.2-4 1.9-1.6 4.8-1.6 2.4 0 4.2 1.2 1.9 1.1 3.7 3.7l12.3 17.1h-4.9l12.4-17.1q1.8-2.7 3.6-3.8 1.8-1.1 4.2-1.1 3 0 4.9 1.5 1.9 1.6 2.2 4 0.3 2.4-1.7 5l-17.1 22.6v-6.8l17.6 23.1q1.9 2.5 1.6 4.9-0.2 2.4-2.1 4-1.9 1.6-4.9 1.6-2.4 0-4.2-1.1-1.8-1.2-3.7-3.8l-12.8-17.6h4.8l-12.6 17.6q-1.9 2.6-3.7 3.8-1.9 1.1-4.3 1.1z"/>
						<path id="&lt;Compound Path&gt;" fill-rule="evenodd" class="s1" d="m-749.7-925.7q-3.6 0-5.6-2.1-2-2-2-5.6v-43.8q0-3.7 2-5.7 2-2 5.7-2h20.3q10 0 15.4 5.1 5.4 5.1 5.4 14.1 0 8.9-5.4 14-5.4 5.1-15.4 5.1h-12.8v13.2q0 3.6-1.9 5.6-1.9 2.1-5.7 2.1zm7.6-32.6h10.2q4.3 0 6.6-1.8 2.3-1.9 2.3-5.6 0-3.8-2.3-5.7-2.3-1.8-6.6-1.8h-10.2z"/>
						<path id="&lt;Compound Path&gt;" fill-rule="evenodd" class="s1" d="m-692.9-925.7q-3.6 0-5.6-2.1-2-2-2-5.6v-43.8q0-3.7 2-5.7 2-2 5.7-2h20.3q10 0 15.4 4.9 5.4 4.8 5.4 13.4 0 5.6-2.4 9.7-2.4 4.1-7 6.3-1.5 0.7-3.2 1.1 1.5 0.5 2.8 1.3 2.7 1.7 4.5 5.1l4.2 7.5q1.3 2.4 1.2 4.7-0.1 2.3-1.8 3.7-1.7 1.5-4.9 1.5-3.2 0-5.2-1.4-2.1-1.3-3.6-4.1l-7.6-13.8q-1-1.9-2.5-2.6-1.5-0.7-3.5-0.7h-4.6v14.9q0 3.6-1.9 5.6-1.9 2.1-5.7 2.1zm28.6-23.8q-1.6-0.4-3.5-0.4h-4l-0.6 1.5q4.5 0 8.1-1.1zm-21-9.5h10.1q4.4 0 6.7-1.8 2.3-1.7 2.3-5.4 0-3.4-2.3-5.2-2.3-1.8-6.7-1.8h-10.1z"/>
						<path id="&lt;Compound Path&gt;" class="s1" d="m-633.3-926.5q-3.9 0-5.9-2-2-2.1-2-5.9v-42.6q0-3.8 2-5.9 2-2 5.9-2h28.1q3 0 4.5 1.5 1.5 1.5 1.5 4.3 0 2.9-1.5 4.4-1.5 1.6-4.5 1.6h-21.5v11.1h19.7q2.9 0 4.4 1.5 1.5 1.5 1.5 4.3 0 2.9-1.5 4.4-1.5 1.5-4.4 1.5h-19.6v12h21.4q3 0 4.5 1.6 1.5 1.5 1.5 4.3 0 2.9-1.5 4.4-1.5 1.5-4.5 1.5z"/>
						<path id="&lt;Compound Path&gt;" class="s1" d="m-568.7-925.6q-3.3 0-6.9-0.5-3.6-0.4-6.8-1.3-3.3-0.9-5.8-2.2-2.3-1-3.2-2.8-0.9-1.8-0.6-3.8 0.2-2 1.4-3.5 1.1-1.5 3-2.1 1.9-0.5 4.3 0.6 3.2 1.4 7.2 2.3 3.9 0.8 7.4 0.8 5.5 0 7.7-1.5 2.2-1.4 2.2-3.6 0-1.9-1.6-3-1.5-1.2-5.4-2l-9.7-2.1q-7.9-1.6-11.8-5.8-3.9-4.1-3.9-10.7 0-4.3 1.8-7.8 1.7-3.5 5-6 3.3-2.5 7.8-3.8 4.5-1.4 10.1-1.4 4.3 0 8.7 0.9 4.4 1 7.7 2.9 1.9 1 2.7 2.7 0.8 1.8 0.7 3.6-0.2 1.9-1.3 3.3-1.1 1.4-3 1.9-1.9 0.4-4.4-0.6-2.4-1.1-5.5-1.7-3-0.5-5.8-0.5-3.1 0-5.2 0.7-2.2 0.7-3.3 2-1.1 1.4-1.1 3.1 0 1.7 1.4 2.9 1.5 1.2 5.4 2.1l9.6 2q8 1.8 12 5.7 4 4 4 10.4 0 4.3-1.8 7.8-1.7 3.5-4.9 5.9-3.3 2.5-7.8 3.8-4.6 1.3-10.3 1.3z"/>
						<path id="&lt;Compound Path&gt;" class="s1" d="m-513.9-925.6q-3.4 0-7-0.5-3.6-0.4-6.8-1.3-3.2-0.9-5.8-2.2-2.2-1.1-3.1-2.8-0.9-1.8-0.7-3.8 0.3-2 1.4-3.5 1.2-1.6 3.1-2.1 1.9-0.5 4.3 0.5 3.1 1.5 7.1 2.4 4 0.8 7.5 0.8 5.4 0 7.6-1.5 2.2-1.4 2.2-3.6 0-1.9-1.5-3-1.6-1.2-5.4-2l-9.7-2.1q-8-1.6-11.9-5.8-3.9-4.1-3.9-10.7 0-4.3 1.8-7.8 1.8-3.5 5.1-6 3.2-2.5 7.7-3.8 4.6-1.4 10.1-1.4 4.3 0 8.7 0.9 4.5 1 7.7 2.9 1.9 1 2.7 2.7 0.9 1.8 0.7 3.6-0.2 1.9-1.3 3.3-1.1 1.4-3 1.9-1.8 0.4-4.4-0.7-2.4-1-5.4-1.6-3-0.5-5.9-0.5-3 0-5.2 0.7-2.1 0.7-3.2 2-1.2 1.4-1.2 3.1 0 1.7 1.5 2.9 1.4 1.2 5.3 2.1l9.6 2q8.1 1.8 12 5.7 4 4 4 10.4 0 4.3-1.7 7.8-1.8 3.5-5 5.9-3.2 2.4-7.8 3.8-4.5 1.3-10.2 1.3z"/>
					</g>
				</g>
				<g id="&lt;Group&gt;">
					<g id="&lt;Group&gt;">
						<path id="&lt;Compound Path&gt;" fill-rule="evenodd" class="s1" d="m-860.5-999.8q-3.7 0-5.6-2-2-2-2-5.7v-43.7q0-3.7 2-5.7 2-2 5.7-2h20.3q10 0 15.4 4.8 5.4 4.9 5.4 13.5 0 5.5-2.4 9.6-2.5 4.1-7.1 6.3-1.4 0.7-3.1 1.2 1.5 0.4 2.8 1.2 2.7 1.7 4.5 5.2l4.2 7.5q1.3 2.4 1.2 4.6-0.1 2.3-1.8 3.8-1.7 1.4-4.9 1.4-3.2 0-5.3-1.3-2-1.3-3.6-4.1l-7.5-13.9q-1-1.8-2.5-2.5-1.6-0.7-3.5-0.7h-4.6v14.8q0 3.7-1.9 5.7-1.9 2-5.7 2zm28.6-23.7q-1.7-0.5-3.5-0.5h-4l-0.7 1.5q4.6 0 8.2-1zm-21-9.6h10.1q4.4 0 6.7-1.7 2.3-1.7 2.3-5.4 0-3.5-2.3-5.2-2.3-1.8-6.7-1.8h-10.1z"/>
						<path id="&lt;Compound Path&gt;" class="s1" d="m-800.9-1000.5q-3.9 0-5.9-2.1-2-2-2-5.8l-0.1-42.6q0-3.9 2.1-5.9 2-2 5.9-2h28.1q3 0 4.4 1.5 1.5 1.5 1.5 4.3 0 2.9-1.5 4.4-1.4 1.5-4.4 1.5h-21.5v11.1h19.7q2.8 0 4.4 1.5 1.5 1.5 1.5 4.4 0 2.9-1.5 4.4-1.5 1.5-4.4 1.5h-19.7v12h21.5q3 0 4.4 1.5 1.5 1.6 1.5 4.4 0 2.9-1.4 4.4-1.5 1.5-4.5 1.5z"/>
						<path id="&lt;Compound Path&gt;" fill-rule="evenodd" class="s1" d="m-749.2-1000.5q-3.9 0-5.9-2.1-2.1-2-2.1-5.8v-42.7q0-3.8 2-5.8 2.1-2 6-2h16.2q15.2 0 23.6 7.6 8.3 7.6 8.3 21.5 0 7-2.2 12.4-2.1 5.4-6.2 9.2-4 3.8-9.9 5.7-6 2-13.6 2zm7.3-12.4h7.9q4.4 0 7.6-1.1 3.2-1 5.3-3.1 2.1-2.1 3.2-5.2 1-3.2 1-7.5 0-8.6-4.2-12.7-4.2-4.1-12.9-4.1h-7.9z"/>
					</g>
				</g>
				<g id="&lt;Group&gt;">
					<path id="&lt;Path&gt;" class="s2" d="m-900.9-941.2q0 1.3 0 2.5c-0.3 7.1-6.1 12.8-13.2 12.8q-0.3 0-0.5 0c-7.3-0.3-13-6.5-12.8-13.8q0.1-0.7 0.1-1.5c0-21.4-17.7-38.8-39.4-38.8h-69.7q-0.4 0-0.7 0c-7.2 0.3-12.9 6.3-12.9 13.5 0 7.3 5.7 13.2 12.9 13.6h70c7.3 0 13.3 5.9 13.3 13.2 0 7.3-6 13.3-13.3 13.3h-65.1c-24.2 0-43.9-18-44-40.1 0-5.4 1.2-10.6 3.4-15.3-2.5 0.9-4.8 1.2-7.1 1.2-8.5 0-15.3-5.1-18.9-8.6-1.7-1.7-1.7-4.5 0-6.1 4.7-4.5 14.7-11.9 27-7.1-2.8-5.2-4.4-11-4.4-17.2 0-21.8 19.8-39.5 44-39.5h65.1c7.3-0.1 13.2 5.9 13.2 13.2 0 7.3-5.9 13.2-13.2 13.2h-68.7q-0.6 0-1.1 0-0.6 0-1.2 0h-0.4v0.1c-6.5 0.8-11.6 6.3-11.6 13 0 6.7 5.1 12.3 11.6 13v0.1h71.8c21.7 0 39.3-17.5 39.3-38.9 0-21.5-17.6-38.9-39.3-38.9h-96.2c-7.3 0-13.3-5.9-13.3-13.2 0-7.4 6-13.3 13.3-13.3h96.2c36.3 0 65.8 29.3 65.8 65.4 0 21.2-10.2 40.2-26.1 52.1 15.9 12 26.1 30.9 26.1 52.1z"/>
					<g id="&lt;Group&gt;">
						<path id="&lt;Path&gt;" class="s2" d="m-1038.2-1006.5h-0.3v-0.1q0.2 0.1 0.3 0.1z"/>
						<path id="&lt;Path&gt;" class="s2" d="m-1038.1-1032.7q-0.2 0.1-0.4 0.1v-0.1z"/>
					</g>
					<g id="&lt;Group&gt;">
						<path id="&lt;Path&gt;" class="s2" d="m-1036.4-952.9h-0.7q0.4 0 0.7 0z"/>
						<path id="&lt;Path&gt;" class="s2" d="m-1032.2-980q-0.4 0-0.8 0h-2.8q-0.3 0-0.6 0z"/>
					</g>
				</g>
			</g>
		</g>
		<path id="&lt;Path&gt;" class="s3" d="m-234.3-1545.1l1080-0.2 0.2 1080.1-1080 0.2z"/>
		<g id="&lt;Group&gt;">
			<g id="&lt;Group&gt;">
				<g id="&lt;Group&gt;">
					<g id="&lt;Group&gt;">
						<path id="&lt;Compound Path&gt;" class="s0" d="m240.5-926.7q-3.9 0.1-5.9-2-2.1-2-2.1-5.8v-42.7q0-3.8 2.1-5.8 2-2 5.9-2h28.1q2.9 0 4.4 1.4 1.5 1.5 1.5 4.4 0 2.9-1.5 4.4-1.5 1.5-4.4 1.5h-21.5v11.1h19.6q2.9 0 4.5 1.5 1.5 1.5 1.5 4.4 0 2.9-1.5 4.4-1.6 1.5-4.5 1.5h-19.6v12h21.5q2.9 0 4.4 1.5 1.5 1.5 1.5 4.4 0 2.9-1.5 4.4-1.5 1.4-4.4 1.4z"/>
						<path id="&lt;Compound Path&gt;" class="s0" d="m289.4-925.9q-2.9 0-4.8-1.6-1.9-1.6-2.2-4-0.3-2.4 1.6-4.8l17.6-23.2v6.8l-17.1-22.6q-1.9-2.5-1.6-4.9 0.3-2.4 2.2-4 1.9-1.6 4.8-1.6 2.4 0 4.2 1.2 1.9 1.1 3.7 3.7l12.3 17.1h-4.9l12.4-17.1q1.8-2.7 3.6-3.8 1.8-1.1 4.2-1.1 3 0 4.9 1.5 1.9 1.6 2.2 4 0.3 2.4-1.7 5l-17.1 22.6v-6.8l17.6 23.1q1.9 2.5 1.6 4.9-0.2 2.4-2.1 4-1.9 1.6-4.9 1.6-2.4 0-4.2-1.1-1.8-1.2-3.7-3.8l-12.8-17.6h4.8l-12.6 17.6q-1.9 2.6-3.7 3.8-1.9 1.1-4.3 1.1z"/>
						<path id="&lt;Compound Path&gt;" fill-rule="evenodd" class="s0" d="m350.3-925.9q-3.6 0-5.6-2.1-2-2-2-5.6v-43.8q0-3.7 2-5.7 2-2 5.7-2h20.3q10 0 15.4 5.1 5.4 5.1 5.4 14.1 0 8.9-5.4 14-5.4 5.1-15.4 5.1h-12.8v13.2q0 3.6-1.9 5.6-1.9 2.1-5.7 2.1zm7.6-32.6h10.2q4.3 0 6.6-1.8 2.3-1.9 2.3-5.6 0-3.8-2.3-5.7-2.3-1.8-6.6-1.8h-10.2z"/>
						<path id="&lt;Compound Path&gt;" fill-rule="evenodd" class="s0" d="m407.1-925.9q-3.6 0-5.6-2.1-2-2-2-5.6v-43.8q0-3.7 2-5.7 2-2 5.7-2h20.3q10 0 15.4 4.9 5.4 4.8 5.4 13.4 0 5.6-2.4 9.7-2.4 4.1-7 6.3-1.5 0.7-3.2 1.1 1.5 0.5 2.8 1.3 2.7 1.7 4.5 5.1l4.2 7.5q1.3 2.4 1.2 4.7-0.1 2.3-1.8 3.7-1.7 1.5-4.9 1.5-3.2 0-5.2-1.4-2.1-1.3-3.6-4.1l-7.6-13.8q-1-1.9-2.5-2.6-1.5-0.7-3.5-0.7h-4.6v14.9q0 3.6-1.9 5.6-1.9 2.1-5.7 2.1zm28.6-23.8q-1.6-0.4-3.5-0.4h-4l-0.6 1.5q4.5 0 8.1-1.1zm-21-9.5h10.1q4.4 0 6.7-1.8 2.3-1.7 2.3-5.4 0-3.4-2.3-5.2-2.3-1.8-6.7-1.8h-10.1z"/>
						<path id="&lt;Compound Path&gt;" class="s0" d="m466.7-926.7q-3.9 0-5.9-2-2-2-2-5.9v-42.6q0-3.8 2-5.8 2-2.1 5.9-2.1h28.1q3 0 4.5 1.5 1.5 1.5 1.5 4.3 0 2.9-1.5 4.4-1.5 1.6-4.5 1.6h-21.5v11.1h19.7q2.9 0 4.4 1.5 1.5 1.5 1.5 4.4 0 2.9-1.5 4.3-1.5 1.5-4.4 1.5h-19.6v12h21.4q3 0 4.5 1.6 1.5 1.5 1.5 4.3 0 2.9-1.5 4.4-1.5 1.5-4.5 1.5z"/>
						<path id="&lt;Compound Path&gt;" class="s0" d="m531.3-925.8q-3.3 0-6.9-0.4-3.6-0.5-6.8-1.4-3.3-0.9-5.8-2.2-2.3-1-3.2-2.8-0.9-1.8-0.6-3.8 0.2-2 1.4-3.5 1.1-1.5 3-2.1 1.9-0.5 4.3 0.6 3.2 1.4 7.2 2.3 3.9 0.8 7.4 0.8 5.5 0 7.7-1.4 2.2-1.5 2.2-3.7 0-1.9-1.6-3-1.5-1.2-5.4-2l-9.7-2.1q-7.9-1.6-11.8-5.8-3.9-4.1-3.9-10.6 0-4.4 1.8-7.9 1.7-3.5 5-6 3.3-2.5 7.8-3.8 4.5-1.4 10.1-1.4 4.3 0 8.7 1 4.4 0.9 7.7 2.8 1.9 1 2.7 2.7 0.8 1.8 0.7 3.6-0.2 1.9-1.3 3.3-1.1 1.4-3 1.9-1.9 0.4-4.4-0.6-2.4-1.1-5.5-1.7-3-0.5-5.8-0.5-3.1 0-5.2 0.7-2.2 0.7-3.3 2-1.1 1.4-1.1 3.1 0 1.7 1.4 2.9 1.5 1.2 5.4 2.1l9.6 2q8 1.8 12 5.8 4 3.9 4 10.3 0 4.3-1.8 7.8-1.7 3.5-4.9 5.9-3.3 2.5-7.8 3.8-4.6 1.3-10.3 1.3z"/>
						<path id="&lt;Compound Path&gt;" class="s0" d="m586.1-925.8q-3.4 0-7-0.5-3.6-0.4-6.8-1.3-3.2-0.9-5.8-2.2-2.2-1-3.1-2.8-0.9-1.8-0.7-3.8 0.3-2 1.4-3.5 1.2-1.5 3.1-2.1 1.9-0.5 4.3 0.5 3.1 1.5 7.1 2.4 4 0.8 7.5 0.8 5.4 0 7.6-1.5 2.2-1.4 2.2-3.6 0-1.9-1.5-3-1.6-1.2-5.4-2l-9.7-2.1q-8-1.6-11.9-5.8-3.9-4.1-3.9-10.7 0-4.3 1.8-7.8 1.8-3.5 5.1-6 3.2-2.5 7.7-3.8 4.6-1.4 10.1-1.4 4.3 0 8.7 0.9 4.5 1 7.7 2.9 1.9 1 2.7 2.7 0.9 1.8 0.7 3.6-0.2 1.9-1.3 3.3-1.1 1.4-3 1.9-1.8 0.4-4.4-0.7-2.4-1-5.4-1.6-3-0.5-5.9-0.5-3 0-5.2 0.7-2.1 0.7-3.2 2-1.2 1.4-1.2 3.1 0 1.7 1.5 2.9 1.4 1.2 5.3 2.1l9.6 2q8.1 1.8 12 5.7 4 4 4 10.4 0 4.3-1.7 7.8-1.8 3.5-5 5.9-3.2 2.4-7.8 3.8-4.5 1.3-10.2 1.3z"/>
					</g>
				</g>
				<g id="&lt;Group&gt;">
					<g id="&lt;Group&gt;">
						<path id="&lt;Compound Path&gt;" fill-rule="evenodd" class="s0" d="m239.5-1000q-3.7 0-5.6-2-2-2-2-5.7v-43.7q0-3.7 2-5.7 2-2 5.7-2h20.3q10 0 15.4 4.8 5.4 4.9 5.4 13.5 0 5.5-2.4 9.6-2.5 4.1-7.1 6.3-1.4 0.7-3.1 1.2 1.5 0.4 2.8 1.2 2.7 1.7 4.5 5.2l4.2 7.5q1.3 2.4 1.2 4.7-0.1 2.2-1.8 3.7-1.7 1.4-4.9 1.4-3.2 0-5.3-1.3-2-1.3-3.6-4.1l-7.5-13.9q-1-1.8-2.5-2.5-1.6-0.7-3.5-0.7h-4.6v14.8q0 3.7-1.9 5.7-1.9 2-5.7 2zm28.6-23.7q-1.7-0.5-3.5-0.5h-4l-0.7 1.5q4.6 0 8.2-1zm-21-9.6h10.1q4.4 0 6.7-1.7 2.3-1.7 2.3-5.4 0-3.5-2.3-5.2-2.3-1.8-6.7-1.8h-10.1z"/>
						<path id="&lt;Compound Path&gt;" class="s0" d="m299.1-1000.7q-3.9 0-5.9-2-2-2.1-2-5.9l-0.1-42.6q0-3.8 2.1-5.9 2-2 5.9-2h28.1q3 0 4.4 1.5 1.5 1.5 1.5 4.3 0 2.9-1.5 4.4-1.4 1.5-4.4 1.5l-21.5 0.1v11h19.7q2.8 0 4.4 1.5 1.5 1.5 1.5 4.4 0 2.9-1.5 4.4-1.5 1.5-4.4 1.5h-19.7v12h21.5q3 0 4.4 1.5 1.5 1.6 1.5 4.4 0 2.9-1.4 4.4-1.5 1.5-4.5 1.5z"/>
						<path id="&lt;Compound Path&gt;" fill-rule="evenodd" class="s0" d="m350.8-1000.7q-3.9 0-5.9-2.1-2.1-2-2.1-5.8v-42.6q0-3.9 2-5.9 2.1-2 6-2h16.2q15.2 0 23.6 7.6 8.3 7.6 8.3 21.5 0 7-2.2 12.4-2.1 5.4-6.2 9.2-4 3.8-9.9 5.7-6 2-13.6 2zm7.3-12.4h7.9q4.4 0 7.6-1.1 3.2-1 5.3-3.1 2.1-2.1 3.2-5.2 1-3.2 1-7.5 0-8.6-4.2-12.7-4.2-4.1-12.9-4.1h-7.9z"/>
					</g>
				</g>
				<g id="&lt;Group&gt;">
					<g id="&lt;Group&gt;">
						<path id="&lt;Path&gt;" class="s0" d="m199.1-941.4q0 1.3 0 2.5c-0.3 7.1-6.1 12.8-13.2 12.8q-0.3 0-0.5 0c-7.3-0.3-13-6.5-12.8-13.8q0.1-0.7 0.1-1.4c0-21.5-17.7-38.9-39.4-38.9h-69.7q-0.4 0-0.7 0c-7.2 0.3-12.9 6.3-12.9 13.5 0 7.3 5.7 13.3 12.9 13.6h70c7.3 0 13.3 5.9 13.3 13.2 0 7.3-6 13.3-13.3 13.3h-65.1c-24.2 0-43.9-18-44-40 0-5.5 1.2-10.7 3.4-15.4-2.5 0.9-4.8 1.2-7.1 1.2-8.5 0-15.3-5.1-18.9-8.6-1.7-1.7-1.7-4.5 0-6.1 4.7-4.5 14.7-11.9 27-7.1-2.8-5.2-4.4-11-4.4-17.2 0-21.8 19.8-39.5 44-39.5h65.1c7.3 0 13.2 5.9 13.2 13.2 0 7.3-5.9 13.2-13.2 13.2h-68.7q-0.6 0-1.1 0-0.6 0-1.2 0h-0.4v0.1c-6.5 0.8-11.6 6.3-11.6 13 0 6.7 5.1 12.3 11.6 13v0.1h71.8c21.7 0 39.3-17.5 39.3-38.9 0-21.5-17.6-38.9-39.3-38.9h-96.2c-7.3 0-13.3-5.9-13.3-13.2 0-7.4 6-13.3 13.3-13.3h96.2c36.3 0 65.8 29.3 65.8 65.4 0 21.2-10.2 40.2-26.1 52.1 15.9 12 26.1 30.9 26.1 52.1z"/>
						<g id="&lt;Group&gt;">
							<path id="&lt;Path&gt;" class="s0" d="m61.8-1006.7h-0.3q0.2 0 0.3 0z"/>
							<path id="&lt;Path&gt;" class="s0" d="m61.9-1032.9q-0.2 0.1-0.4 0.1v-0.1z"/>
						</g>
						<g id="&lt;Group&gt;">
							<path id="&lt;Path&gt;" class="s0" d="m63.6-953.1h-0.7q0.4 0 0.7 0z"/>
							<path id="&lt;Path&gt;" class="s0" d="m67.8-980.2q-0.4 0-0.8 0h-2.8q-0.3 0-0.6 0z"/>
						</g>
					</g>
				</g>
			</g>
		</g>
		<path id="&lt;Path&gt;" class="s0" d="m865.7-1540.3l1080-0.2 0.2 1080.1-1080 0.2z"/>
		<g id="&lt;Group&gt;">
			<g id="&lt;Group&gt;">
				<g id="&lt;Group&gt;">
					<path id="&lt;Compound Path&gt;" class="s2" d="m1340.5-926.8q-3.9 0-5.9-2.1-2.1-2-2.1-5.8v-42.7q0-3.8 2.1-5.8 2-2 5.9-2h28.1q2.9 0 4.4 1.5 1.5 1.4 1.5 4.3 0 2.9-1.5 4.4-1.5 1.5-4.4 1.5h-21.5v11.1h19.6q2.9 0 4.5 1.5 1.5 1.5 1.5 4.4 0 2.9-1.5 4.4-1.6 1.5-4.5 1.5h-19.6v12h21.5q2.9 0 4.4 1.5 1.5 1.6 1.5 4.4 0 2.9-1.5 4.4-1.5 1.4-4.4 1.4z"/>
					<path id="&lt;Compound Path&gt;" class="s2" d="m1389.4-926.1q-2.9 0-4.8-1.6-1.9-1.6-2.2-4-0.3-2.4 1.6-4.8l17.6-23.2v6.8l-17.1-22.6q-1.9-2.5-1.6-4.9 0.3-2.4 2.2-4 1.9-1.6 4.8-1.6 2.4 0 4.2 1.2 1.9 1.1 3.7 3.7l12.3 17.1h-4.9l12.4-17.1q1.8-2.7 3.6-3.8 1.8-1.1 4.2-1.1 3 0 4.9 1.5 1.9 1.6 2.2 4 0.3 2.4-1.7 5l-17.1 22.6v-6.8l17.6 23.1q1.9 2.5 1.6 4.9-0.2 2.4-2.1 4-1.9 1.6-4.9 1.6-2.4 0-4.2-1.1-1.8-1.2-3.7-3.8l-12.8-17.6h4.8l-12.6 17.6q-1.9 2.7-3.7 3.8-1.9 1.1-4.3 1.1z"/>
					<path id="&lt;Compound Path&gt;" fill-rule="evenodd" class="s2" d="m1450.3-926.1q-3.6 0-5.6-2-2-2.1-2-5.7v-43.7q0-3.8 2-5.8 2-2 5.7-2h20.3q10 0 15.4 5.1 5.4 5.1 5.4 14.1 0 8.9-5.4 14-5.4 5.1-15.4 5.1h-12.8v13.2q0 3.6-1.9 5.6-1.9 2.1-5.7 2.1zm7.6-32.6h10.2q4.3 0 6.6-1.8 2.3-1.9 2.3-5.6 0-3.8-2.3-5.7-2.3-1.8-6.6-1.8h-10.2z"/>
					<path id="&lt;Compound Path&gt;" fill-rule="evenodd" class="s2" d="m1507.1-926.1q-3.6 0-5.6-2.1-2-2-2-5.6v-43.8q0-3.7 2-5.7 2-2 5.7-2h20.3q10 0 15.4 4.9 5.4 4.8 5.4 13.4 0 5.6-2.4 9.7-2.4 4.1-7 6.3-1.5 0.7-3.2 1.2 1.5 0.4 2.8 1.2 2.7 1.7 4.5 5.2l4.2 7.4q1.3 2.4 1.2 4.7-0.1 2.3-1.8 3.7-1.7 1.5-4.9 1.5-3.2 0-5.2-1.4-2.1-1.3-3.6-4.1l-7.6-13.8q-1-1.9-2.5-2.6-1.5-0.7-3.5-0.7h-4.6v14.9q0 3.6-1.9 5.6-1.9 2.1-5.7 2.1zm28.6-23.7q-1.6-0.5-3.5-0.5h-4l-0.6 1.5q4.5 0 8.1-1zm-21-9.6h10.1q4.4 0 6.7-1.8 2.3-1.7 2.3-5.4 0-3.4-2.3-5.2-2.3-1.8-6.7-1.8h-10.1z"/>
					<path id="&lt;Compound Path&gt;" class="s2" d="m1566.7-926.9q-3.9 0-5.9-2-2-2-2-5.9v-42.6q0-3.8 2-5.8 2-2.1 5.9-2.1h28.1q3 0 4.5 1.5 1.5 1.5 1.5 4.3 0 2.9-1.5 4.4-1.5 1.6-4.5 1.6h-21.5v11.1h19.7q2.9 0 4.4 1.5 1.5 1.5 1.5 4.4 0 2.9-1.5 4.3-1.5 1.5-4.4 1.5h-19.6v12.1l21.4-0.1q3 0 4.5 1.6 1.5 1.5 1.5 4.3 0 2.9-1.5 4.4-1.5 1.5-4.5 1.5z"/>
					<path id="&lt;Compound Path&gt;" class="s2" d="m1631.3-926q-3.3 0-6.9-0.4-3.6-0.5-6.8-1.4-3.3-0.9-5.8-2.2-2.3-1-3.2-2.8-0.9-1.8-0.6-3.8 0.2-2 1.4-3.5 1.1-1.5 3-2.1 1.9-0.5 4.3 0.6 3.2 1.5 7.2 2.3 3.9 0.8 7.4 0.8 5.5 0 7.7-1.4 2.2-1.5 2.2-3.6 0-1.9-1.6-3.1-1.5-1.2-5.4-2l-9.7-2.1q-7.9-1.6-11.8-5.8-3.9-4.1-3.9-10.6 0-4.3 1.8-7.9 1.7-3.5 5-6 3.3-2.5 7.8-3.8 4.5-1.4 10.1-1.4 4.3 0 8.7 1 4.4 0.9 7.7 2.8 1.9 1 2.7 2.7 0.8 1.8 0.7 3.6-0.2 1.9-1.3 3.3-1.1 1.4-3 1.9-1.9 0.4-4.4-0.6-2.4-1.1-5.5-1.7-3-0.5-5.8-0.5-3.1 0-5.2 0.7-2.2 0.7-3.3 2-1.1 1.4-1.1 3.1 0 1.7 1.4 2.9 1.5 1.3 5.4 2.1l9.6 2q8 1.8 12 5.8 4 3.9 4 10.3 0 4.3-1.8 7.8-1.7 3.5-4.9 5.9-3.3 2.5-7.8 3.8-4.6 1.3-10.3 1.3z"/>
					<path id="&lt;Compound Path&gt;" class="s2" d="m1686.1-926q-3.4 0-7-0.5-3.6-0.4-6.8-1.3-3.2-0.9-5.8-2.2-2.2-1-3.1-2.8-0.9-1.8-0.7-3.8 0.3-2 1.4-3.5 1.2-1.5 3.1-2.1 1.9-0.5 4.3 0.6 3.1 1.4 7.1 2.3 4 0.8 7.5 0.8 5.4 0 7.6-1.5 2.2-1.4 2.2-3.6 0-1.9-1.5-3-1.6-1.2-5.4-2l-9.7-2.1q-8-1.6-11.9-5.8-3.9-4.1-3.9-10.7 0-4.3 1.8-7.8 1.8-3.5 5.1-6 3.2-2.5 7.7-3.8 4.6-1.4 10.1-1.4 4.3 0 8.7 0.9 4.5 1 7.7 2.9 1.9 1 2.7 2.7 0.9 1.8 0.7 3.6-0.2 1.9-1.3 3.3-1.1 1.4-3 1.9-1.8 0.4-4.4-0.6-2.4-1.1-5.4-1.7-3-0.5-5.9-0.5-3 0-5.2 0.7-2.1 0.7-3.2 2-1.2 1.4-1.2 3.1 0 1.7 1.5 2.9 1.4 1.2 5.3 2.1l9.6 2q8.1 1.8 12 5.7 4 4 4 10.4 0 4.3-1.7 7.8-1.8 3.5-5 5.9-3.2 2.5-7.8 3.8-4.5 1.3-10.2 1.3z"/>
				</g>
			</g>
			<g id="&lt;Group&gt;">
				<g id="&lt;Group&gt;">
					<path id="&lt;Compound Path&gt;" fill-rule="evenodd" class="s2" d="m1339.5-1000.2q-3.7 0-5.6-2-2-2-2-5.7v-43.7q0-3.7 2-5.7 2-2 5.7-2h20.3q10 0 15.4 4.8 5.4 4.9 5.4 13.5 0 5.6-2.4 9.7-2.5 4.1-7.1 6.2-1.4 0.7-3.1 1.2 1.5 0.4 2.8 1.2 2.7 1.7 4.5 5.2l4.2 7.5q1.3 2.4 1.2 4.7-0.1 2.2-1.8 3.7-1.7 1.4-4.9 1.4-3.2 0-5.3-1.3-2-1.3-3.6-4.1l-7.5-13.9q-1-1.8-2.5-2.5-1.6-0.7-3.5-0.7h-4.6v14.8q0 3.7-1.9 5.7-1.9 2-5.7 2zm28.6-23.7q-1.7-0.4-3.5-0.4h-4l-0.7 1.4q4.6 0 8.2-1zm-21-9.6h10.1q4.4 0 6.7-1.7 2.3-1.7 2.3-5.4 0-3.5-2.3-5.2-2.3-1.8-6.7-1.8h-10.1z"/>
					<path id="&lt;Compound Path&gt;" class="s2" d="m1399.1-1000.9q-3.9 0-5.9-2-2-2.1-2-5.9l-0.1-42.6q0-3.8 2.1-5.9 2-2 5.9-2h28.1q3 0 4.4 1.5 1.5 1.5 1.5 4.3 0 2.9-1.5 4.4-1.4 1.6-4.4 1.6h-21.5v11.1h19.7q2.8 0 4.4 1.4 1.5 1.5 1.5 4.4 0 2.9-1.5 4.4-1.5 1.5-4.4 1.5h-19.7v12h21.5q3 0 4.4 1.6 1.5 1.5 1.5 4.3 0 2.9-1.4 4.4-1.5 1.5-4.5 1.5z"/>
					<path id="&lt;Compound Path&gt;" fill-rule="evenodd" class="s2" d="m1450.8-1000.9q-3.9 0-5.9-2.1-2.1-2-2.1-5.8v-42.6q0-3.9 2-5.9 2.1-2 6-2h16.2q15.2 0 23.6 7.6 8.3 7.6 8.3 21.5 0 7-2.2 12.4-2.1 5.4-6.2 9.2-4 3.8-9.9 5.7-6 2-13.6 2zm7.3-12.4h7.9q4.4 0 7.6-1 3.2-1.1 5.3-3.2 2.1-2.1 3.2-5.2 1-3.2 1-7.5 0-8.6-4.2-12.7-4.2-4.1-12.9-4.1h-7.9z"/>
				</g>
			</g>
			<g id="&lt;Group&gt;">
				<g id="&lt;Group&gt;">
					<path id="&lt;Path&gt;" class="s2" d="m1299.1-941.5q0 1.2 0 2.4c-0.3 7.2-6.1 12.8-13.2 12.8q-0.3 0-0.5 0c-7.3-0.3-13-6.5-12.8-13.8q0.1-0.7 0.1-1.4c0-21.5-17.7-38.9-39.4-38.9h-69.7q-0.4 0-0.7 0c-7.2 0.3-12.9 6.3-12.9 13.6 0 7.2 5.7 13.2 12.9 13.5h70c7.3 0 13.3 5.9 13.3 13.2 0 7.3-6 13.3-13.3 13.3h-65.1c-24.2 0-43.9-18-44-40 0-5.5 1.2-10.7 3.4-15.4-2.5 0.9-4.8 1.2-7.1 1.2-8.5 0-15.3-5.1-18.9-8.6-1.7-1.7-1.7-4.5 0-6.1 4.7-4.5 14.7-11.9 27-7.1-2.8-5.2-4.4-11-4.4-17.2 0-21.8 19.8-39.5 44-39.5h65.1c7.3 0 13.2 5.9 13.2 13.2 0 7.3-5.9 13.2-13.2 13.2h-68.7q-0.6 0-1.1 0-0.6 0-1.2 0h-0.4v0.1c-6.5 0.8-11.6 6.3-11.6 13 0 6.7 5.1 12.3 11.6 13.1h71.8c21.7 0 39.3-17.5 39.3-38.9 0-21.5-17.6-38.9-39.3-38.9h-96.2c-7.3 0-13.3-5.9-13.3-13.2 0-7.3 6-13.3 13.3-13.3h96.2c36.3 0 65.8 29.3 65.8 65.4 0 21.2-10.2 40.2-26.1 52.1 15.9 12 26.1 30.9 26.1 52.2z"/>
					<g id="&lt;Group&gt;">
						<path id="&lt;Path&gt;" class="s2" d="m1161.8-1006.9h-0.3q0.2 0 0.3 0z"/>
						<path id="&lt;Path&gt;" class="s2" d="m1161.9-1033q-0.2 0-0.4 0z"/>
					</g>
					<g id="&lt;Group&gt;">
						<path id="&lt;Path&gt;" class="s2" d="m1163.6-953.3h-0.7q0.4 0 0.7 0z"/>
						<path id="&lt;Path&gt;" class="s2" d="m1167.8-980.4q-0.4 0-0.8 0h-2.8q-0.3 0-0.6 0z"/>
					</g>
				</g>
			</g>
		</g>
		<g id="&lt;Group&gt;">
			<path id="&lt;Path&gt;" class="s1" d="m865.5-2645.4l1080-0.2 0.2 1080.1-1080 0.2z"/>
		</g>
		<g id="&lt;Group&gt;">
			<g id="&lt;Group&gt;">
				<g id="&lt;Group&gt;">
					<g id="&lt;Group&gt;">
						<path id="&lt;Compound Path&gt;" class="s0" d="m1340.3-2026.9q-3.9 0-5.9-2.1-2.1-2-2.1-5.8v-42.7q0-3.8 2.1-5.8 2-2 5.9-2h28.1q2.9 0 4.4 1.5 1.5 1.4 1.5 4.3 0 2.9-1.5 4.4-1.5 1.5-4.4 1.5h-21.5v11.1h19.6q2.9 0 4.5 1.5 1.5 1.5 1.5 4.4 0 2.9-1.5 4.4-1.6 1.5-4.5 1.5h-19.6v12h21.5q2.9 0 4.4 1.5 1.5 1.6 1.5 4.4 0 2.9-1.5 4.4-1.4 1.5-4.4 1.5z"/>
						<path id="&lt;Compound Path&gt;" class="s0" d="m1389.2-2026.2q-2.9 0-4.8-1.6-1.9-1.5-2.2-4-0.3-2.4 1.7-4.8l17.5-23.2v6.8l-17.1-22.6q-1.9-2.5-1.6-4.9 0.3-2.4 2.2-4 1.9-1.6 4.8-1.6 2.4 0 4.2 1.2 1.9 1.1 3.7 3.7l12.3 17.1h-4.9l12.4-17.1q1.8-2.6 3.6-3.8 1.8-1.1 4.3-1.1 2.9 0 4.8 1.5 1.9 1.6 2.2 4 0.3 2.4-1.7 5l-17.1 22.6v-6.8l17.6 23.2q1.9 2.4 1.7 4.8-0.3 2.4-2.2 4-1.9 1.6-4.9 1.6-2.3 0-4.2-1.1-1.8-1.1-3.7-3.8l-12.7-17.6h4.8l-12.7 17.6q-1.9 2.7-3.7 3.8-1.9 1.1-4.3 1.1z"/>
						<path id="&lt;Compound Path&gt;" fill-rule="evenodd" class="s0" d="m1450.1-2026.2q-3.6 0-5.6-2-2-2.1-2-5.7v-43.7q0-3.8 2-5.8 2-1.9 5.7-1.9h20.3q10-0.1 15.4 5 5.4 5.1 5.4 14.1 0 8.9-5.4 14-5.4 5.1-15.3 5.1h-12.9v13.2q0 3.6-1.9 5.7-1.9 2-5.7 2zm7.6-32.6h10.2q4.3 0 6.6-1.8 2.3-1.9 2.3-5.6 0-3.8-2.3-5.7-2.3-1.8-6.6-1.8h-10.2z"/>
						<path id="&lt;Compound Path&gt;" fill-rule="evenodd" class="s0" d="m1506.9-2026.2q-3.6 0-5.6-2.1-2-2-2-5.6v-43.8q0-3.7 2-5.7 2-2 5.7-2h20.4q9.9 0 15.3 4.9 5.4 4.8 5.4 13.4 0 5.6-2.4 9.7-2.4 4.1-7 6.3-1.5 0.7-3.2 1.2 1.5 0.4 2.8 1.2 2.7 1.7 4.5 5.2l4.2 7.4q1.3 2.4 1.2 4.7-0.1 2.3-1.7 3.7-1.7 1.5-5 1.5-3.2 0-5.2-1.4-2.1-1.3-3.6-4.1l-7.6-13.8q-1-1.8-2.5-2.5-1.5-0.8-3.5-0.8h-4.6v14.9q0 3.6-1.9 5.6-1.9 2.1-5.7 2.1zm28.6-23.7q-1.6-0.5-3.5-0.5h-4l-0.6 1.5q4.5 0 8.1-1zm-21-9.6h10.1q4.4 0 6.7-1.8 2.4-1.7 2.4-5.3-0.1-3.5-2.4-5.3-2.3-1.8-6.7-1.8h-10.1z"/>
						<path id="&lt;Compound Path&gt;" class="s0" d="m1566.5-2027q-3.9 0-5.9-2-2-2-2-5.8v-42.7q0-3.8 2-5.8 2-2.1 5.9-2.1h28.1q3 0 4.5 1.5 1.5 1.5 1.5 4.3 0 2.9-1.5 4.5-1.5 1.5-4.5 1.5h-21.4v11.1h19.6q2.9 0 4.4 1.5 1.5 1.5 1.5 4.4 0 2.9-1.5 4.4-1.5 1.4-4.4 1.4l-19.6 0.1v12h21.4q3 0 4.5 1.5 1.5 1.5 1.5 4.3 0 2.9-1.5 4.4-1.5 1.5-4.5 1.5z"/>
						<path id="&lt;Compound Path&gt;" class="s0" d="m1631.1-2026.1q-3.3 0-6.9-0.4-3.6-0.5-6.8-1.4-3.3-0.9-5.8-2.2-2.3-1-3.2-2.8-0.9-1.8-0.6-3.8 0.2-2 1.4-3.5 1.1-1.5 3-2.1 1.9-0.5 4.3 0.6 3.2 1.5 7.2 2.3 3.9 0.8 7.4 0.8 5.5 0 7.7-1.4 2.2-1.5 2.2-3.6 0-1.9-1.6-3.1-1.5-1.2-5.4-2l-9.7-2.1q-7.9-1.6-11.8-5.8-3.9-4.1-3.9-10.6 0-4.3 1.8-7.9 1.8-3.5 5-6 3.3-2.5 7.8-3.8 4.5-1.4 10.1-1.4 4.3 0 8.7 1 4.4 0.9 7.7 2.8 1.9 1 2.7 2.8 0.8 1.7 0.7 3.6-0.2 1.8-1.3 3.2-1.1 1.4-3 1.9-1.9 0.4-4.4-0.6-2.4-1.1-5.5-1.6-3-0.6-5.8-0.6-3.1 0-5.2 0.7-2.2 0.7-3.3 2.1-1.1 1.3-1.1 3 0 1.8 1.5 3 1.4 1.2 5.3 2l9.6 2.1q8 1.7 12 5.7 4 3.9 4 10.3 0 4.3-1.8 7.8-1.7 3.5-4.9 5.9-3.3 2.5-7.8 3.8-4.6 1.3-10.3 1.3z"/>
						<path id="&lt;Compound Path&gt;" class="s0" d="m1685.9-2026.1q-3.3 0-6.9-0.4-3.7-0.5-6.9-1.4-3.2-0.9-5.8-2.2-2.2-1-3.1-2.8-0.9-1.8-0.7-3.8 0.3-2 1.4-3.5 1.2-1.5 3.1-2.1 1.9-0.5 4.3 0.6 3.1 1.5 7.1 2.3 4 0.8 7.5 0.8 5.4 0 7.6-1.4 2.2-1.5 2.2-3.6 0-2-1.5-3.1-1.5-1.2-5.4-2l-9.7-2.1q-8-1.6-11.9-5.8-3.9-4.1-3.9-10.6 0-4.4 1.8-7.9 1.8-3.5 5.1-6 3.2-2.5 7.7-3.8 4.6-1.4 10.1-1.4 4.3 0 8.7 1 4.5 0.9 7.7 2.8 1.9 1 2.7 2.7 0.9 1.8 0.7 3.6-0.2 1.9-1.3 3.3-1.1 1.4-3 1.9-1.8 0.4-4.4-0.6-2.4-1.1-5.4-1.7-3-0.5-5.9-0.5-3 0-5.2 0.7-2.1 0.7-3.2 2-1.2 1.4-1.2 3.1 0 1.7 1.5 2.9 1.4 1.2 5.3 2.1l9.6 2q8.1 1.8 12 5.8 4 3.9 4 10.3 0 4.3-1.7 7.8-1.8 3.5-5 5.9-3.2 2.5-7.8 3.8-4.5 1.3-10.2 1.3z"/>
					</g>
				</g>
				<g id="&lt;Group&gt;">
					<g id="&lt;Group&gt;">
						<path id="&lt;Compound Path&gt;" fill-rule="evenodd" class="s0" d="m1339.3-2100.3q-3.7 0-5.6-2-2-2-2-5.7v-43.7q0-3.7 2-5.7 2-2 5.7-2h20.3q10 0 15.4 4.9 5.4 4.8 5.4 13.4 0 5.6-2.4 9.7-2.5 4.1-7.1 6.3-1.4 0.7-3.1 1.1 1.5 0.5 2.8 1.3 2.7 1.7 4.5 5.1l4.2 7.5q1.3 2.4 1.2 4.7-0.1 2.2-1.8 3.7-1.7 1.4-4.9 1.4-3.2 0-5.3-1.3-2-1.3-3.6-4.1l-7.5-13.9q-1-1.8-2.5-2.5-1.6-0.7-3.5-0.7h-4.6v14.8q0 3.7-1.9 5.7-1.9 2-5.7 2zm28.6-23.7q-1.6-0.4-3.5-0.4h-4l-0.7 1.5q4.6 0 8.2-1.1zm-21-9.5h10.1q4.4 0 6.7-1.8 2.3-1.7 2.3-5.4 0-3.5-2.3-5.2-2.3-1.8-6.7-1.8h-10.1z"/>
						<path id="&lt;Compound Path&gt;" class="s0" d="m1398.9-2101q-3.9 0-5.9-2-2-2.1-2-5.9v-42.6q0-3.8 2-5.9 2-2 5.9-2h28.1q3 0 4.4 1.5 1.5 1.5 1.5 4.3 0 2.9-1.5 4.4-1.4 1.6-4.4 1.6h-21.5v11.1h19.7q2.9 0 4.4 1.4 1.5 1.5 1.5 4.4 0 2.9-1.5 4.4-1.5 1.5-4.4 1.5h-19.7v12h21.5q3 0 4.5 1.6 1.4 1.5 1.4 4.3 0 2.9-1.4 4.4-1.5 1.5-4.5 1.5z"/>
						<path id="&lt;Compound Path&gt;" fill-rule="evenodd" class="s0" d="m1450.6-2101q-3.9 0-5.9-2-2.1-2.1-2.1-5.9v-42.6q0-3.8 2.1-5.9 2-2 5.9-2h16.2q15.2 0 23.6 7.6 8.3 7.6 8.3 21.5 0 7-2.2 12.4-2.1 5.4-6.2 9.2-4 3.8-9.9 5.7-6 2-13.6 2zm7.3-12.4h8q4.3 0 7.5-1 3.2-1.1 5.3-3.2 2.1-2.1 3.2-5.2 1-3.2 1-7.5 0-8.6-4.2-12.7-4.2-4.1-12.9-4.1h-7.9z"/>
					</g>
				</g>
				<g id="&lt;Group&gt;">
					<g id="&lt;Group&gt;">
						<path id="&lt;Path&gt;" class="s0" d="m1298.9-2041.6q0.1 1.2 0 2.4c-0.3 7.2-6.1 12.8-13.2 12.8q-0.3 0-0.5 0c-7.3-0.3-13-6.5-12.8-13.8q0.1-0.7 0.1-1.4c0-21.5-17.7-38.9-39.4-38.9h-69.7q-0.3 0-0.7 0c-7.2 0.3-12.9 6.3-12.9 13.6 0 7.2 5.7 13.2 12.9 13.5h70c7.3 0 13.3 5.9 13.3 13.2 0 7.3-6 13.3-13.3 13.3h-65.1c-24.2 0-43.9-18-43.9-40 0-5.5 1.1-10.7 3.3-15.4-2.5 0.9-4.8 1.2-7.1 1.2-8.5 0-15.3-5.1-18.9-8.6-1.7-1.7-1.7-4.5 0-6.1 4.7-4.5 14.7-11.9 27-7.1-2.8-5.2-4.4-11-4.4-17.2 0-21.8 19.8-39.5 44-39.5h65.1c7.3 0 13.2 5.9 13.2 13.2 0.1 7.3-5.9 13.2-13.2 13.2l-68.7 0.1q-0.6-0.1-1.1-0.1-0.6 0-1.2 0.1h-0.4c-6.5 0.8-11.6 6.3-11.6 13 0 6.8 5.1 12.3 11.6 13.1h71.8c21.7 0 39.3-17.5 39.3-38.9 0-21.5-17.6-38.9-39.3-38.9h-96.2c-7.3 0-13.3-5.9-13.3-13.2 0-7.3 6-13.3 13.3-13.3h96.2c36.3 0 65.8 29.3 65.8 65.4 0 21.2-10.2 40.2-26.1 52.1 15.9 12 26.1 30.9 26.1 52.2z"/>
						<g id="&lt;Group&gt;">
							<path id="&lt;Path&gt;" class="s0" d="m1161.6-2107h-0.3q0.2 0 0.3 0z"/>
							<path id="&lt;Path&gt;" class="s0" d="m1161.7-2133.1q-0.2 0-0.4 0z"/>
						</g>
						<g id="&lt;Group&gt;">
							<path id="&lt;Path&gt;" class="s0" d="m1163.4-2053.4h-0.7q0.4 0 0.7 0z"/>
							<path id="&lt;Path&gt;" class="s0" d="m1167.6-2080.5q-0.4 0-0.8 0h-2.8q-0.3 0-0.6 0z"/>
						</g>
					</g>
				</g>
			</g>
		</g>
	</g>
</svg>